<svg xmlns="http://www.w3.org/2000/svg" xmlns:xlink="http://www.w3.org/1999/xlink" width="500" zoomAndPan="magnify" viewBox="0 0 375 374.999991" height="500" preserveAspectRatio="xMidYMid meet" version="1.0"><defs><g/><linearGradient x1="0" gradientTransform="matrix(0.75, 0, 0, 0.75, 0.0000045, 0)" y1="0" x2="499.999979" gradientUnits="userSpaceOnUse" y2="0" id="6249a69c8d"><stop stop-opacity="1" stop-color="rgb(63.09967%, 6.698608%, 6.698608%)" offset="0"/><stop stop-opacity="1" stop-color="rgb(62.969971%, 6.67572%, 6.67572%)" offset="0.0078125"/><stop stop-opacity="1" stop-color="rgb(62.713623%, 6.629944%, 6.629944%)" offset="0.015625"/><stop stop-opacity="1" stop-color="rgb(62.45575%, 6.584167%, 6.584167%)" offset="0.0234375"/><stop stop-opacity="1" stop-color="rgb(62.199402%, 6.538391%, 6.538391%)" offset="0.03125"/><stop stop-opacity="1" stop-color="rgb(61.941528%, 6.491089%, 6.491089%)" offset="0.0390625"/><stop stop-opacity="1" stop-color="rgb(61.685181%, 6.445312%, 6.445312%)" offset="0.046875"/><stop stop-opacity="1" stop-color="rgb(61.428833%, 6.399536%, 6.399536%)" offset="0.0546875"/><stop stop-opacity="1" stop-color="rgb(61.170959%, 6.35376%, 6.35376%)" offset="0.0625"/><stop stop-opacity="1" stop-color="rgb(60.914612%, 6.307983%, 6.307983%)" offset="0.0703125"/><stop stop-opacity="1" stop-color="rgb(60.656738%, 6.260681%, 6.260681%)" offset="0.078125"/><stop stop-opacity="1" stop-color="rgb(60.400391%, 6.214905%, 6.214905%)" offset="0.0859375"/><stop stop-opacity="1" stop-color="rgb(60.142517%, 6.169128%, 6.169128%)" offset="0.09375"/><stop stop-opacity="1" stop-color="rgb(59.886169%, 6.123352%, 6.123352%)" offset="0.101562"/><stop stop-opacity="1" stop-color="rgb(59.628296%, 6.077576%, 6.077576%)" offset="0.109375"/><stop stop-opacity="1" stop-color="rgb(59.371948%, 6.030273%, 6.030273%)" offset="0.117188"/><stop stop-opacity="1" stop-color="rgb(59.115601%, 5.984497%, 5.984497%)" offset="0.125"/><stop stop-opacity="1" stop-color="rgb(58.857727%, 5.938721%, 5.938721%)" offset="0.132812"/><stop stop-opacity="1" stop-color="rgb(58.601379%, 5.892944%, 5.892944%)" offset="0.140625"/><stop stop-opacity="1" stop-color="rgb(58.343506%, 5.845642%, 5.845642%)" offset="0.148437"/><stop stop-opacity="1" stop-color="rgb(58.087158%, 5.799866%, 5.799866%)" offset="0.15625"/><stop stop-opacity="1" stop-color="rgb(57.829285%, 5.754089%, 5.754089%)" offset="0.164062"/><stop stop-opacity="1" stop-color="rgb(57.572937%, 5.708313%, 5.708313%)" offset="0.171875"/><stop stop-opacity="1" stop-color="rgb(57.315063%, 5.662537%, 5.662537%)" offset="0.179687"/><stop stop-opacity="1" stop-color="rgb(57.058716%, 5.615234%, 5.615234%)" offset="0.1875"/><stop stop-opacity="1" stop-color="rgb(56.802368%, 5.569458%, 5.569458%)" offset="0.195312"/><stop stop-opacity="1" stop-color="rgb(56.544495%, 5.523682%, 5.523682%)" offset="0.203125"/><stop stop-opacity="1" stop-color="rgb(56.288147%, 5.477905%, 5.477905%)" offset="0.210938"/><stop stop-opacity="1" stop-color="rgb(56.030273%, 5.432129%, 5.432129%)" offset="0.21875"/><stop stop-opacity="1" stop-color="rgb(55.773926%, 5.384827%, 5.384827%)" offset="0.226562"/><stop stop-opacity="1" stop-color="rgb(55.516052%, 5.33905%, 5.33905%)" offset="0.234375"/><stop stop-opacity="1" stop-color="rgb(55.259705%, 5.293274%, 5.293274%)" offset="0.242188"/><stop stop-opacity="1" stop-color="rgb(55.001831%, 5.247498%, 5.247498%)" offset="0.25"/><stop stop-opacity="1" stop-color="rgb(54.745483%, 5.201721%, 5.201721%)" offset="0.257812"/><stop stop-opacity="1" stop-color="rgb(54.48761%, 5.154419%, 5.154419%)" offset="0.265625"/><stop stop-opacity="1" stop-color="rgb(54.231262%, 5.108643%, 5.108643%)" offset="0.273437"/><stop stop-opacity="1" stop-color="rgb(53.974915%, 5.062866%, 5.062866%)" offset="0.28125"/><stop stop-opacity="1" stop-color="rgb(53.717041%, 5.01709%, 5.01709%)" offset="0.289062"/><stop stop-opacity="1" stop-color="rgb(53.460693%, 4.971313%, 4.971313%)" offset="0.296875"/><stop stop-opacity="1" stop-color="rgb(53.20282%, 4.924011%, 4.924011%)" offset="0.304687"/><stop stop-opacity="1" stop-color="rgb(52.946472%, 4.878235%, 4.878235%)" offset="0.3125"/><stop stop-opacity="1" stop-color="rgb(52.688599%, 4.832458%, 4.832458%)" offset="0.320312"/><stop stop-opacity="1" stop-color="rgb(52.432251%, 4.786682%, 4.786682%)" offset="0.328125"/><stop stop-opacity="1" stop-color="rgb(52.174377%, 4.73938%, 4.73938%)" offset="0.335937"/><stop stop-opacity="1" stop-color="rgb(51.91803%, 4.693604%, 4.693604%)" offset="0.34375"/><stop stop-opacity="1" stop-color="rgb(51.661682%, 4.647827%, 4.647827%)" offset="0.351562"/><stop stop-opacity="1" stop-color="rgb(51.403809%, 4.602051%, 4.602051%)" offset="0.359375"/><stop stop-opacity="1" stop-color="rgb(51.147461%, 4.556274%, 4.556274%)" offset="0.367187"/><stop stop-opacity="1" stop-color="rgb(50.889587%, 4.508972%, 4.508972%)" offset="0.375"/><stop stop-opacity="1" stop-color="rgb(50.63324%, 4.463196%, 4.463196%)" offset="0.382812"/><stop stop-opacity="1" stop-color="rgb(50.375366%, 4.417419%, 4.417419%)" offset="0.390625"/><stop stop-opacity="1" stop-color="rgb(50.119019%, 4.371643%, 4.371643%)" offset="0.398438"/><stop stop-opacity="1" stop-color="rgb(49.861145%, 4.325867%, 4.325867%)" offset="0.40625"/><stop stop-opacity="1" stop-color="rgb(49.604797%, 4.278564%, 4.278564%)" offset="0.414062"/><stop stop-opacity="1" stop-color="rgb(49.34845%, 4.232788%, 4.232788%)" offset="0.421875"/><stop stop-opacity="1" stop-color="rgb(49.090576%, 4.187012%, 4.187012%)" offset="0.429688"/><stop stop-opacity="1" stop-color="rgb(48.834229%, 4.141235%, 4.141235%)" offset="0.4375"/><stop stop-opacity="1" stop-color="rgb(48.576355%, 4.095459%, 4.095459%)" offset="0.445312"/><stop stop-opacity="1" stop-color="rgb(48.320007%, 4.048157%, 4.048157%)" offset="0.453125"/><stop stop-opacity="1" stop-color="rgb(48.062134%, 4.00238%, 4.00238%)" offset="0.460938"/><stop stop-opacity="1" stop-color="rgb(47.805786%, 3.956604%, 3.956604%)" offset="0.46875"/><stop stop-opacity="1" stop-color="rgb(47.547913%, 3.910828%, 3.910828%)" offset="0.476562"/><stop stop-opacity="1" stop-color="rgb(47.291565%, 3.865051%, 3.865051%)" offset="0.484375"/><stop stop-opacity="1" stop-color="rgb(47.033691%, 3.817749%, 3.817749%)" offset="0.492188"/><stop stop-opacity="1" stop-color="rgb(46.777344%, 3.771973%, 3.771973%)" offset="0.5"/><stop stop-opacity="1" stop-color="rgb(46.520996%, 3.726196%, 3.726196%)" offset="0.507812"/><stop stop-opacity="1" stop-color="rgb(46.263123%, 3.68042%, 3.68042%)" offset="0.515625"/><stop stop-opacity="1" stop-color="rgb(46.006775%, 3.633118%, 3.633118%)" offset="0.523437"/><stop stop-opacity="1" stop-color="rgb(45.748901%, 3.587341%, 3.587341%)" offset="0.53125"/><stop stop-opacity="1" stop-color="rgb(45.492554%, 3.541565%, 3.541565%)" offset="0.539062"/><stop stop-opacity="1" stop-color="rgb(45.23468%, 3.495789%, 3.495789%)" offset="0.546875"/><stop stop-opacity="1" stop-color="rgb(44.978333%, 3.450012%, 3.450012%)" offset="0.554687"/><stop stop-opacity="1" stop-color="rgb(44.720459%, 3.40271%, 3.40271%)" offset="0.5625"/><stop stop-opacity="1" stop-color="rgb(44.464111%, 3.356934%, 3.356934%)" offset="0.570312"/><stop stop-opacity="1" stop-color="rgb(44.207764%, 3.311157%, 3.311157%)" offset="0.578125"/><stop stop-opacity="1" stop-color="rgb(43.94989%, 3.265381%, 3.265381%)" offset="0.585937"/><stop stop-opacity="1" stop-color="rgb(43.693542%, 3.219604%, 3.219604%)" offset="0.59375"/><stop stop-opacity="1" stop-color="rgb(43.435669%, 3.172302%, 3.172302%)" offset="0.601562"/><stop stop-opacity="1" stop-color="rgb(43.179321%, 3.126526%, 3.126526%)" offset="0.609375"/><stop stop-opacity="1" stop-color="rgb(42.921448%, 3.08075%, 3.08075%)" offset="0.617187"/><stop stop-opacity="1" stop-color="rgb(42.6651%, 3.034973%, 3.034973%)" offset="0.625"/><stop stop-opacity="1" stop-color="rgb(42.407227%, 2.989197%, 2.989197%)" offset="0.632812"/><stop stop-opacity="1" stop-color="rgb(42.150879%, 2.941895%, 2.941895%)" offset="0.640625"/><stop stop-opacity="1" stop-color="rgb(41.894531%, 2.896118%, 2.896118%)" offset="0.648437"/><stop stop-opacity="1" stop-color="rgb(41.636658%, 2.850342%, 2.850342%)" offset="0.65625"/><stop stop-opacity="1" stop-color="rgb(41.38031%, 2.804565%, 2.804565%)" offset="0.664062"/><stop stop-opacity="1" stop-color="rgb(41.122437%, 2.758789%, 2.758789%)" offset="0.671875"/><stop stop-opacity="1" stop-color="rgb(40.866089%, 2.711487%, 2.711487%)" offset="0.679687"/><stop stop-opacity="1" stop-color="rgb(40.608215%, 2.66571%, 2.66571%)" offset="0.6875"/><stop stop-opacity="1" stop-color="rgb(40.351868%, 2.619934%, 2.619934%)" offset="0.695312"/><stop stop-opacity="1" stop-color="rgb(40.093994%, 2.574158%, 2.574158%)" offset="0.703125"/><stop stop-opacity="1" stop-color="rgb(39.837646%, 2.526855%, 2.526855%)" offset="0.710937"/><stop stop-opacity="1" stop-color="rgb(39.581299%, 2.481079%, 2.481079%)" offset="0.71875"/><stop stop-opacity="1" stop-color="rgb(39.323425%, 2.435303%, 2.435303%)" offset="0.726562"/><stop stop-opacity="1" stop-color="rgb(39.067078%, 2.389526%, 2.389526%)" offset="0.734375"/><stop stop-opacity="1" stop-color="rgb(38.809204%, 2.34375%, 2.34375%)" offset="0.742187"/><stop stop-opacity="1" stop-color="rgb(38.552856%, 2.296448%, 2.296448%)" offset="0.75"/><stop stop-opacity="1" stop-color="rgb(38.294983%, 2.250671%, 2.250671%)" offset="0.757812"/><stop stop-opacity="1" stop-color="rgb(38.038635%, 2.204895%, 2.204895%)" offset="0.765625"/><stop stop-opacity="1" stop-color="rgb(37.780762%, 2.159119%, 2.159119%)" offset="0.773438"/><stop stop-opacity="1" stop-color="rgb(37.524414%, 2.113342%, 2.113342%)" offset="0.78125"/><stop stop-opacity="1" stop-color="rgb(37.266541%, 2.06604%, 2.06604%)" offset="0.789062"/><stop stop-opacity="1" stop-color="rgb(37.010193%, 2.020264%, 2.020264%)" offset="0.796875"/><stop stop-opacity="1" stop-color="rgb(36.753845%, 1.974487%, 1.974487%)" offset="0.804688"/><stop stop-opacity="1" stop-color="rgb(36.495972%, 1.928711%, 1.928711%)" offset="0.8125"/><stop stop-opacity="1" stop-color="rgb(36.239624%, 1.882935%, 1.882935%)" offset="0.820312"/><stop stop-opacity="1" stop-color="rgb(35.98175%, 1.835632%, 1.835632%)" offset="0.828125"/><stop stop-opacity="1" stop-color="rgb(35.725403%, 1.789856%, 1.789856%)" offset="0.835938"/><stop stop-opacity="1" stop-color="rgb(35.467529%, 1.74408%, 1.74408%)" offset="0.84375"/><stop stop-opacity="1" stop-color="rgb(35.211182%, 1.698303%, 1.698303%)" offset="0.851562"/><stop stop-opacity="1" stop-color="rgb(34.953308%, 1.652527%, 1.652527%)" offset="0.859375"/><stop stop-opacity="1" stop-color="rgb(34.69696%, 1.605225%, 1.605225%)" offset="0.867188"/><stop stop-opacity="1" stop-color="rgb(34.440613%, 1.559448%, 1.559448%)" offset="0.875"/><stop stop-opacity="1" stop-color="rgb(34.182739%, 1.513672%, 1.513672%)" offset="0.882812"/><stop stop-opacity="1" stop-color="rgb(33.926392%, 1.467896%, 1.467896%)" offset="0.890625"/><stop stop-opacity="1" stop-color="rgb(33.668518%, 1.420593%, 1.420593%)" offset="0.898438"/><stop stop-opacity="1" stop-color="rgb(33.41217%, 1.374817%, 1.374817%)" offset="0.90625"/><stop stop-opacity="1" stop-color="rgb(33.154297%, 1.329041%, 1.329041%)" offset="0.914062"/><stop stop-opacity="1" stop-color="rgb(32.897949%, 1.283264%, 1.283264%)" offset="0.921875"/><stop stop-opacity="1" stop-color="rgb(32.640076%, 1.237488%, 1.237488%)" offset="0.929688"/><stop stop-opacity="1" stop-color="rgb(32.383728%, 1.190186%, 1.190186%)" offset="0.9375"/><stop stop-opacity="1" stop-color="rgb(32.12738%, 1.144409%, 1.144409%)" offset="0.945312"/><stop stop-opacity="1" stop-color="rgb(31.869507%, 1.098633%, 1.098633%)" offset="0.953125"/><stop stop-opacity="1" stop-color="rgb(31.613159%, 1.052856%, 1.052856%)" offset="0.960938"/><stop stop-opacity="1" stop-color="rgb(31.355286%, 1.00708%, 1.00708%)" offset="0.96875"/><stop stop-opacity="1" stop-color="rgb(31.098938%, 0.959778%, 0.959778%)" offset="0.976562"/><stop stop-opacity="1" stop-color="rgb(30.841064%, 0.914001%, 0.914001%)" offset="0.984375"/><stop stop-opacity="1" stop-color="rgb(30.584717%, 0.868225%, 0.868225%)" offset="0.992188"/><stop stop-opacity="1" stop-color="rgb(30.326843%, 0.822449%, 0.822449%)" offset="1"/></linearGradient><clipPath id="6366a472fb"><path d="M 97 51.605469 L 284 51.605469 L 284 231.605469 L 97 231.605469 Z M 97 51.605469 " clip-rule="nonzero"/></clipPath><clipPath id="f9597a87cb"><path d="M 179.820312 99.945312 L 192.484375 99.945312 L 192.484375 147.199219 L 179.820312 147.199219 Z M 179.820312 99.945312 " clip-rule="nonzero"/></clipPath><clipPath id="2f22f08256"><path d="M 191.101562 147 C 188.773438 139.949219 189.75 134.476562 189 132 C 188.625 130.5 187.875 129.675781 187.125 128.625 C 186.449219 127.648438 185.851562 126.523438 184.949219 126 C 184.125 125.550781 182.625 125.023438 182.023438 125.476562 C 181.050781 126.226562 182.023438 131.101562 181.425781 132 C 181.199219 132.375 180.824219 132.601562 180.601562 132.523438 C 180.375 132.523438 180.074219 132.226562 180 131.773438 C 179.625 130.199219 181.726562 124.5 182.398438 120.449219 C 183.074219 115.800781 182.773438 106.125 184.050781 105.375 C 184.425781 105.148438 184.949219 105.449219 185.324219 105.976562 C 186.449219 107.625 185.925781 119.773438 185.324219 122.023438 C 185.175781 122.625 184.726562 123.148438 184.648438 123.074219 C 184.5 123 188.023438 114.976562 188.925781 111 C 189.75 107.398438 189.148438 101.25 190.273438 100.273438 C 190.648438 99.976562 191.324219 99.898438 191.625 100.273438 C 192.898438 101.625 191.398438 118.425781 189.976562 120 C 189.601562 120.449219 188.925781 120.449219 188.699219 120.226562 C 188.324219 120 188.476562 119.101562 188.398438 118.050781 C 188.398438 115.351562 188.476562 105.226562 189.601562 103.648438 C 189.976562 103.199219 190.574219 102.976562 190.800781 103.125 C 191.175781 103.351562 191.175781 104.476562 191.101562 105.601562 C 190.949219 108.074219 188.925781 116.023438 187.949219 117.449219 C 187.648438 117.898438 187.273438 118.125 187.050781 118.050781 C 186.75 118.050781 186.375 117.375 186.449219 117.148438 C 186.523438 116.925781 187.199219 116.550781 187.425781 116.625 C 187.648438 116.699219 187.949219 117.375 187.875 117.601562 C 187.800781 117.824219 187.351562 118.125 187.125 118.125 C 186.824219 118.050781 186.523438 117.75 186.449219 117.226562 C 186.074219 115.425781 188.398438 104.851562 189.601562 103.5 C 189.976562 103.125 190.5 102.898438 190.800781 103.125 C 191.925781 104.023438 190.949219 118.351562 189.976562 120 C 189.75 120.449219 189.375 120.601562 189.148438 120.523438 C 188.925781 120.523438 188.699219 120.300781 188.550781 119.925781 C 188.023438 118.574219 188.851562 112.425781 189.148438 108.976562 C 189.449219 105.898438 189.375 101.25 190.273438 100.273438 C 190.574219 99.976562 191.25 99.824219 191.550781 100.125 C 192.449219 100.949219 191.023438 108.148438 190.351562 111.449219 C 189.824219 114 189.226562 116.023438 188.398438 118.199219 C 187.574219 120.300781 186.226562 123.601562 185.398438 124.273438 C 185.023438 124.574219 184.726562 124.648438 184.5 124.5 C 184.125 124.273438 183.976562 123.226562 183.824219 122.023438 C 183.449219 118.949219 183.074219 107.324219 183.824219 105.675781 C 184.050781 105.300781 184.273438 105.148438 184.5 105.148438 C 184.726562 105.148438 185.101562 105.375 185.324219 105.75 C 185.851562 107.023438 185.175781 111.523438 184.726562 115.125 C 184.050781 119.925781 182.625 130.351562 181.425781 132 C 181.199219 132.449219 180.824219 132.601562 180.601562 132.523438 C 180.375 132.523438 180.074219 132.148438 180 131.773438 C 179.699219 130.726562 180 127.125 180.375 125.851562 C 180.601562 125.175781 180.75 124.648438 181.273438 124.351562 C 181.949219 123.976562 183.449219 123.824219 184.5 124.199219 C 185.851562 124.726562 187.425781 126.601562 188.476562 127.949219 C 189.375 129.148438 190.050781 130.199219 190.5 131.851562 C 191.175781 134.476562 190.273438 139.726562 190.875 142.425781 C 191.175781 144.074219 192.449219 145.574219 192.449219 146.398438 C 192.449219 146.773438 192.300781 147.074219 192.074219 147.148438 C 191.851562 147.300781 191.101562 147 191.101562 147 " clip-rule="nonzero"/></clipPath><clipPath id="739578922a"><path d="M 118.3125 63.070312 L 259.902344 63.070312 L 259.902344 204.65625 L 118.3125 204.65625 Z M 118.3125 63.070312 " clip-rule="nonzero"/></clipPath><clipPath id="5be413172e"><path d="M 189.105469 63.070312 C 150.007812 63.070312 118.3125 94.765625 118.3125 133.863281 C 118.3125 172.960938 150.007812 204.65625 189.105469 204.65625 C 228.207031 204.65625 259.902344 172.960938 259.902344 133.863281 C 259.902344 94.765625 228.207031 63.070312 189.105469 63.070312 Z M 189.105469 63.070312 " clip-rule="nonzero"/></clipPath><linearGradient x1="-0.000000234532" gradientTransform="matrix(0.553078, 0, 0, 0.553078, 118.31315, 63.069578)" y1="0" x2="255.999986" gradientUnits="userSpaceOnUse" y2="0" id="dff5edd9a9"><stop stop-opacity="1" stop-color="rgb(63.09967%, 6.698608%, 6.698608%)" offset="0"/><stop stop-opacity="1" stop-color="rgb(62.969971%, 6.67572%, 6.67572%)" offset="0.0078125"/><stop stop-opacity="1" stop-color="rgb(62.713623%, 6.629944%, 6.629944%)" offset="0.015625"/><stop stop-opacity="1" stop-color="rgb(62.45575%, 6.584167%, 6.584167%)" offset="0.0234375"/><stop stop-opacity="1" stop-color="rgb(62.199402%, 6.538391%, 6.538391%)" offset="0.03125"/><stop stop-opacity="1" stop-color="rgb(61.941528%, 6.491089%, 6.491089%)" offset="0.0390625"/><stop stop-opacity="1" stop-color="rgb(61.685181%, 6.445312%, 6.445312%)" offset="0.046875"/><stop stop-opacity="1" stop-color="rgb(61.428833%, 6.399536%, 6.399536%)" offset="0.0546875"/><stop stop-opacity="1" stop-color="rgb(61.170959%, 6.35376%, 6.35376%)" offset="0.0625"/><stop stop-opacity="1" stop-color="rgb(60.914612%, 6.307983%, 6.307983%)" offset="0.0703125"/><stop stop-opacity="1" stop-color="rgb(60.656738%, 6.260681%, 6.260681%)" offset="0.078125"/><stop stop-opacity="1" stop-color="rgb(60.400391%, 6.214905%, 6.214905%)" offset="0.0859375"/><stop stop-opacity="1" stop-color="rgb(60.142517%, 6.169128%, 6.169128%)" offset="0.09375"/><stop stop-opacity="1" stop-color="rgb(59.886169%, 6.123352%, 6.123352%)" offset="0.101562"/><stop stop-opacity="1" stop-color="rgb(59.628296%, 6.077576%, 6.077576%)" offset="0.109375"/><stop stop-opacity="1" stop-color="rgb(59.371948%, 6.030273%, 6.030273%)" offset="0.117187"/><stop stop-opacity="1" stop-color="rgb(59.115601%, 5.984497%, 5.984497%)" offset="0.125"/><stop stop-opacity="1" stop-color="rgb(58.857727%, 5.938721%, 5.938721%)" offset="0.132812"/><stop stop-opacity="1" stop-color="rgb(58.601379%, 5.892944%, 5.892944%)" offset="0.140625"/><stop stop-opacity="1" stop-color="rgb(58.343506%, 5.845642%, 5.845642%)" offset="0.148438"/><stop stop-opacity="1" stop-color="rgb(58.087158%, 5.799866%, 5.799866%)" offset="0.15625"/><stop stop-opacity="1" stop-color="rgb(57.829285%, 5.754089%, 5.754089%)" offset="0.164062"/><stop stop-opacity="1" stop-color="rgb(57.572937%, 5.708313%, 5.708313%)" offset="0.171875"/><stop stop-opacity="1" stop-color="rgb(57.315063%, 5.662537%, 5.662537%)" offset="0.179688"/><stop stop-opacity="1" stop-color="rgb(57.058716%, 5.615234%, 5.615234%)" offset="0.1875"/><stop stop-opacity="1" stop-color="rgb(56.802368%, 5.569458%, 5.569458%)" offset="0.195312"/><stop stop-opacity="1" stop-color="rgb(56.544495%, 5.523682%, 5.523682%)" offset="0.203125"/><stop stop-opacity="1" stop-color="rgb(56.288147%, 5.477905%, 5.477905%)" offset="0.210938"/><stop stop-opacity="1" stop-color="rgb(56.030273%, 5.432129%, 5.432129%)" offset="0.21875"/><stop stop-opacity="1" stop-color="rgb(55.773926%, 5.384827%, 5.384827%)" offset="0.226562"/><stop stop-opacity="1" stop-color="rgb(55.516052%, 5.33905%, 5.33905%)" offset="0.234375"/><stop stop-opacity="1" stop-color="rgb(55.259705%, 5.293274%, 5.293274%)" offset="0.242188"/><stop stop-opacity="1" stop-color="rgb(55.001831%, 5.247498%, 5.247498%)" offset="0.25"/><stop stop-opacity="1" stop-color="rgb(54.745483%, 5.201721%, 5.201721%)" offset="0.257812"/><stop stop-opacity="1" stop-color="rgb(54.48761%, 5.154419%, 5.154419%)" offset="0.265625"/><stop stop-opacity="1" stop-color="rgb(54.231262%, 5.108643%, 5.108643%)" offset="0.273438"/><stop stop-opacity="1" stop-color="rgb(53.974915%, 5.062866%, 5.062866%)" offset="0.28125"/><stop stop-opacity="1" stop-color="rgb(53.717041%, 5.01709%, 5.01709%)" offset="0.289062"/><stop stop-opacity="1" stop-color="rgb(53.460693%, 4.971313%, 4.971313%)" offset="0.296875"/><stop stop-opacity="1" stop-color="rgb(53.20282%, 4.924011%, 4.924011%)" offset="0.304687"/><stop stop-opacity="1" stop-color="rgb(52.946472%, 4.878235%, 4.878235%)" offset="0.3125"/><stop stop-opacity="1" stop-color="rgb(52.688599%, 4.832458%, 4.832458%)" offset="0.320312"/><stop stop-opacity="1" stop-color="rgb(52.432251%, 4.786682%, 4.786682%)" offset="0.328125"/><stop stop-opacity="1" stop-color="rgb(52.174377%, 4.73938%, 4.73938%)" offset="0.335937"/><stop stop-opacity="1" stop-color="rgb(51.91803%, 4.693604%, 4.693604%)" offset="0.34375"/><stop stop-opacity="1" stop-color="rgb(51.661682%, 4.647827%, 4.647827%)" offset="0.351562"/><stop stop-opacity="1" stop-color="rgb(51.403809%, 4.602051%, 4.602051%)" offset="0.359375"/><stop stop-opacity="1" stop-color="rgb(51.147461%, 4.556274%, 4.556274%)" offset="0.367188"/><stop stop-opacity="1" stop-color="rgb(50.889587%, 4.508972%, 4.508972%)" offset="0.375"/><stop stop-opacity="1" stop-color="rgb(50.63324%, 4.463196%, 4.463196%)" offset="0.382812"/><stop stop-opacity="1" stop-color="rgb(50.375366%, 4.417419%, 4.417419%)" offset="0.390625"/><stop stop-opacity="1" stop-color="rgb(50.119019%, 4.371643%, 4.371643%)" offset="0.398438"/><stop stop-opacity="1" stop-color="rgb(49.861145%, 4.325867%, 4.325867%)" offset="0.40625"/><stop stop-opacity="1" stop-color="rgb(49.604797%, 4.278564%, 4.278564%)" offset="0.414063"/><stop stop-opacity="1" stop-color="rgb(49.34845%, 4.232788%, 4.232788%)" offset="0.421875"/><stop stop-opacity="1" stop-color="rgb(49.090576%, 4.187012%, 4.187012%)" offset="0.429687"/><stop stop-opacity="1" stop-color="rgb(48.834229%, 4.141235%, 4.141235%)" offset="0.4375"/><stop stop-opacity="1" stop-color="rgb(48.576355%, 4.095459%, 4.095459%)" offset="0.445312"/><stop stop-opacity="1" stop-color="rgb(48.320007%, 4.048157%, 4.048157%)" offset="0.453125"/><stop stop-opacity="1" stop-color="rgb(48.062134%, 4.00238%, 4.00238%)" offset="0.460937"/><stop stop-opacity="1" stop-color="rgb(47.805786%, 3.956604%, 3.956604%)" offset="0.46875"/><stop stop-opacity="1" stop-color="rgb(47.547913%, 3.910828%, 3.910828%)" offset="0.476562"/><stop stop-opacity="1" stop-color="rgb(47.291565%, 3.865051%, 3.865051%)" offset="0.484375"/><stop stop-opacity="1" stop-color="rgb(47.033691%, 3.817749%, 3.817749%)" offset="0.492188"/><stop stop-opacity="1" stop-color="rgb(46.777344%, 3.771973%, 3.771973%)" offset="0.5"/><stop stop-opacity="1" stop-color="rgb(46.520996%, 3.726196%, 3.726196%)" offset="0.507812"/><stop stop-opacity="1" stop-color="rgb(46.263123%, 3.68042%, 3.68042%)" offset="0.515625"/><stop stop-opacity="1" stop-color="rgb(46.006775%, 3.633118%, 3.633118%)" offset="0.523438"/><stop stop-opacity="1" stop-color="rgb(45.748901%, 3.587341%, 3.587341%)" offset="0.53125"/><stop stop-opacity="1" stop-color="rgb(45.492554%, 3.541565%, 3.541565%)" offset="0.539062"/><stop stop-opacity="1" stop-color="rgb(45.23468%, 3.495789%, 3.495789%)" offset="0.546875"/><stop stop-opacity="1" stop-color="rgb(44.978333%, 3.450012%, 3.450012%)" offset="0.554688"/><stop stop-opacity="1" stop-color="rgb(44.720459%, 3.40271%, 3.40271%)" offset="0.5625"/><stop stop-opacity="1" stop-color="rgb(44.464111%, 3.356934%, 3.356934%)" offset="0.570312"/><stop stop-opacity="1" stop-color="rgb(44.207764%, 3.311157%, 3.311157%)" offset="0.578125"/><stop stop-opacity="1" stop-color="rgb(43.94989%, 3.265381%, 3.265381%)" offset="0.585938"/><stop stop-opacity="1" stop-color="rgb(43.693542%, 3.219604%, 3.219604%)" offset="0.59375"/><stop stop-opacity="1" stop-color="rgb(43.435669%, 3.172302%, 3.172302%)" offset="0.601562"/><stop stop-opacity="1" stop-color="rgb(43.179321%, 3.126526%, 3.126526%)" offset="0.609375"/><stop stop-opacity="1" stop-color="rgb(42.921448%, 3.08075%, 3.08075%)" offset="0.617187"/><stop stop-opacity="1" stop-color="rgb(42.6651%, 3.034973%, 3.034973%)" offset="0.625"/><stop stop-opacity="1" stop-color="rgb(42.407227%, 2.989197%, 2.989197%)" offset="0.632812"/><stop stop-opacity="1" stop-color="rgb(42.150879%, 2.941895%, 2.941895%)" offset="0.640625"/><stop stop-opacity="1" stop-color="rgb(41.894531%, 2.896118%, 2.896118%)" offset="0.648438"/><stop stop-opacity="1" stop-color="rgb(41.636658%, 2.850342%, 2.850342%)" offset="0.65625"/><stop stop-opacity="1" stop-color="rgb(41.38031%, 2.804565%, 2.804565%)" offset="0.664062"/><stop stop-opacity="1" stop-color="rgb(41.122437%, 2.758789%, 2.758789%)" offset="0.671875"/><stop stop-opacity="1" stop-color="rgb(40.866089%, 2.711487%, 2.711487%)" offset="0.679687"/><stop stop-opacity="1" stop-color="rgb(40.608215%, 2.66571%, 2.66571%)" offset="0.6875"/><stop stop-opacity="1" stop-color="rgb(40.351868%, 2.619934%, 2.619934%)" offset="0.695312"/><stop stop-opacity="1" stop-color="rgb(40.093994%, 2.574158%, 2.574158%)" offset="0.703125"/><stop stop-opacity="1" stop-color="rgb(39.837646%, 2.526855%, 2.526855%)" offset="0.710938"/><stop stop-opacity="1" stop-color="rgb(39.581299%, 2.481079%, 2.481079%)" offset="0.71875"/><stop stop-opacity="1" stop-color="rgb(39.323425%, 2.435303%, 2.435303%)" offset="0.726562"/><stop stop-opacity="1" stop-color="rgb(39.067078%, 2.389526%, 2.389526%)" offset="0.734375"/><stop stop-opacity="1" stop-color="rgb(38.809204%, 2.34375%, 2.34375%)" offset="0.742188"/><stop stop-opacity="1" stop-color="rgb(38.552856%, 2.296448%, 2.296448%)" offset="0.75"/><stop stop-opacity="1" stop-color="rgb(38.294983%, 2.250671%, 2.250671%)" offset="0.757812"/><stop stop-opacity="1" stop-color="rgb(38.038635%, 2.204895%, 2.204895%)" offset="0.765625"/><stop stop-opacity="1" stop-color="rgb(37.780762%, 2.159119%, 2.159119%)" offset="0.773437"/><stop stop-opacity="1" stop-color="rgb(37.524414%, 2.113342%, 2.113342%)" offset="0.78125"/><stop stop-opacity="1" stop-color="rgb(37.266541%, 2.06604%, 2.06604%)" offset="0.789062"/><stop stop-opacity="1" stop-color="rgb(37.010193%, 2.020264%, 2.020264%)" offset="0.796875"/><stop stop-opacity="1" stop-color="rgb(36.753845%, 1.974487%, 1.974487%)" offset="0.804688"/><stop stop-opacity="1" stop-color="rgb(36.495972%, 1.928711%, 1.928711%)" offset="0.8125"/><stop stop-opacity="1" stop-color="rgb(36.239624%, 1.882935%, 1.882935%)" offset="0.820313"/><stop stop-opacity="1" stop-color="rgb(35.98175%, 1.835632%, 1.835632%)" offset="0.828125"/><stop stop-opacity="1" stop-color="rgb(35.725403%, 1.789856%, 1.789856%)" offset="0.835938"/><stop stop-opacity="1" stop-color="rgb(35.467529%, 1.74408%, 1.74408%)" offset="0.84375"/><stop stop-opacity="1" stop-color="rgb(35.211182%, 1.698303%, 1.698303%)" offset="0.851562"/><stop stop-opacity="1" stop-color="rgb(34.953308%, 1.652527%, 1.652527%)" offset="0.859375"/><stop stop-opacity="1" stop-color="rgb(34.69696%, 1.605225%, 1.605225%)" offset="0.867188"/><stop stop-opacity="1" stop-color="rgb(34.440613%, 1.559448%, 1.559448%)" offset="0.875"/><stop stop-opacity="1" stop-color="rgb(34.182739%, 1.513672%, 1.513672%)" offset="0.882812"/><stop stop-opacity="1" stop-color="rgb(33.926392%, 1.467896%, 1.467896%)" offset="0.890625"/><stop stop-opacity="1" stop-color="rgb(33.668518%, 1.420593%, 1.420593%)" offset="0.898438"/><stop stop-opacity="1" stop-color="rgb(33.41217%, 1.374817%, 1.374817%)" offset="0.90625"/><stop stop-opacity="1" stop-color="rgb(33.154297%, 1.329041%, 1.329041%)" offset="0.914062"/><stop stop-opacity="1" stop-color="rgb(32.897949%, 1.283264%, 1.283264%)" offset="0.921875"/><stop stop-opacity="1" stop-color="rgb(32.640076%, 1.237488%, 1.237488%)" offset="0.929687"/><stop stop-opacity="1" stop-color="rgb(32.383728%, 1.190186%, 1.190186%)" offset="0.9375"/><stop stop-opacity="1" stop-color="rgb(32.12738%, 1.144409%, 1.144409%)" offset="0.945312"/><stop stop-opacity="1" stop-color="rgb(31.869507%, 1.098633%, 1.098633%)" offset="0.953125"/><stop stop-opacity="1" stop-color="rgb(31.613159%, 1.052856%, 1.052856%)" offset="0.960938"/><stop stop-opacity="1" stop-color="rgb(31.355286%, 1.00708%, 1.00708%)" offset="0.96875"/><stop stop-opacity="1" stop-color="rgb(31.098938%, 0.959778%, 0.959778%)" offset="0.976562"/><stop stop-opacity="1" stop-color="rgb(30.841064%, 0.914001%, 0.914001%)" offset="0.984375"/><stop stop-opacity="1" stop-color="rgb(30.584717%, 0.868225%, 0.868225%)" offset="0.992188"/><stop stop-opacity="1" stop-color="rgb(30.326843%, 0.822449%, 0.822449%)" offset="1"/></linearGradient></defs><rect x="-37.5" width="450" fill="#ffffff" y="-37.499999" height="449.999989" fill-opacity="1"/><rect x="-37.5" fill="url(#6249a69c8d)" width="450" y="-37.499999" height="449.999989"/><path stroke-linecap="butt" transform="matrix(0.75, 0, 0, 0.75, 87.798383, 289.353262)" fill="none" stroke-linejoin="miter" d="M -0.00201031 1.997734 L 273.873008 1.997734 " stroke="#ffbd59" stroke-width="4" stroke-opacity="1" stroke-miterlimit="4"/><g clip-path="url(#6366a472fb)"><path fill="#ffbd59" d="M 150.519531 53.203125 C 151.367188 52.632812 152.113281 51.628906 153.261719 51.917969 C 152.675781 53.203125 151.347656 53.914062 150.683594 55.144531 C 147.316406 63.96875 141.078125 64.238281 140.753906 68.367188 C 143.316406 66.875 145.6875 65.046875 148.328125 63.664062 C 149.179688 63.265625 149.882812 62.625 150.410156 61.855469 C 156.378906 53.757812 166.183594 52.089844 175.957031 54.472656 C 176.492188 54.535156 176.65625 55.011719 176.78125 55.464844 C 175.265625 55.675781 173.722656 55.605469 172.214844 55.828125 C 166.15625 57.613281 164.523438 65.625 154.71875 64.046875 C 153.34375 64.085938 152 63.691406 150.632812 63.710938 C 147.6875 65.164062 141.734375 68.902344 140.347656 70.355469 C 141.332031 70.882812 142.472656 70.722656 143.542969 70.667969 C 145.222656 70.464844 146.558594 69.375 148.023438 68.636719 C 152.859375 66.113281 153.179688 66.777344 159.65625 67.578125 C 161.984375 68.046875 164.363281 67.648438 166.710938 67.769531 C 166.664062 67.914062 166.578125 68.207031 166.53125 68.355469 C 165.210938 68.816406 163.804688 68.878906 162.433594 69.105469 C 159.695312 70.128906 157.351562 72.105469 154.484375 72.804688 C 148.882812 72.925781 143.316406 72.058594 137.71875 72.261719 C 133.925781 75.355469 130.277344 78.667969 127.144531 82.449219 C 129.441406 83.917969 133.484375 79.4375 135.347656 78.261719 C 136.953125 77.078125 138.953125 76.59375 140.917969 76.554688 C 150.894531 75.675781 145.542969 76.382812 151.722656 75.042969 C 151.714844 75.234375 151.707031 75.625 151.703125 75.816406 C 150.488281 76.40625 149.148438 76.679688 147.929688 77.253906 C 145.675781 78.484375 142.441406 82.199219 140.238281 82.480469 C 123.835938 85.011719 125.78125 84.199219 124.777344 85.300781 C 121.597656 89.207031 117.597656 95.433594 117.15625 96.96875 C 120.441406 96.914062 122.601562 91.210938 125.785156 89.578125 C 129.777344 87.347656 131.566406 88.554688 139.285156 84.753906 C 139.308594 84.945312 139.351562 85.320312 139.375 85.507812 C 138.175781 86.613281 136.472656 87.015625 135.363281 88.238281 C 132.777344 91.078125 131.542969 93.464844 129.21875 94.386719 C 114.835938 99.605469 115.925781 98.835938 115.210938 100.441406 C 113.359375 104.542969 111.542969 108.714844 110.507812 113.109375 C 113.003906 113.199219 114.351562 107.296875 117.160156 104.417969 C 120.082031 101.890625 123.984375 101.015625 127.105469 98.796875 C 128.042969 98.144531 128.929688 97.417969 129.878906 96.773438 C 129.902344 97.15625 130.082031 97.613281 129.730469 97.910156 C 128.820312 98.960938 127.523438 99.625 126.742188 100.796875 C 125.183594 103.148438 124.347656 106.03125 122.226562 107.976562 C 118.269531 110.53125 110.539062 115.125 109.601562 116.257812 C 108.652344 120.144531 108.125 124.117188 107.632812 128.082031 C 109.5625 127.84375 109.824219 122.253906 112.308594 118.929688 C 114.699219 116.238281 118.117188 114.808594 120.746094 112.390625 C 121.414062 111.777344 121.457031 110.691406 122.304688 110.238281 C 122.40625 111.589844 121.320312 112.589844 121.074219 113.859375 C 119.296875 122.238281 117.507812 121.613281 109.941406 128.914062 C 109.164062 129.6875 108.207031 130.296875 107.574219 131.207031 C 107.359375 133.761719 107.460938 141.609375 108.132812 144.605469 L 108.613281 144.605469 C 109.179688 143.632812 109.675781 142.550781 109.648438 141.402344 C 109.691406 133.300781 111.238281 134.199219 117.15625 127.613281 C 118.046875 126.832031 118.324219 125.65625 118.59375 124.558594 C 118.71875 124.519531 118.964844 124.441406 119.09375 124.398438 C 119.253906 125.710938 118.445312 126.855469 118.445312 128.148438 C 118.019531 136.636719 116.996094 133.371094 108.515625 147.007812 C 109.027344 151.382812 110.242188 155.671875 111.597656 159.863281 C 111.683594 160.398438 112.558594 160.097656 112.535156 159.636719 C 113.007812 157.386719 112.46875 155.109375 112.261719 152.867188 C 112.1875 152.082031 111.800781 151.28125 112.109375 150.5 C 113.132812 146.789062 115.96875 143.984375 117.515625 140.527344 C 117.910156 139.773438 117.390625 138.570312 118.195312 138.101562 C 119.371094 153.097656 119.539062 143.800781 113.117188 161.535156 C 112.976562 162.019531 112.6875 162.53125 112.828125 163.050781 C 114.320312 167.214844 116.429688 171.121094 118.574219 174.976562 C 118.691406 175.011719 118.921875 175.085938 119.035156 175.121094 C 119.15625 173.824219 119.292969 172.441406 118.734375 171.222656 C 115.484375 163.683594 117.484375 163.824219 120.246094 154.75 C 120.539062 153.648438 120.105469 152.511719 120.371094 151.402344 C 120.789062 152.023438 121.121094 152.71875 121.132812 153.484375 C 121.308594 156.058594 124.375 161.714844 122.914062 165.132812 C 121.503906 168.96875 120.824219 173.007812 119.902344 176.972656 C 123.097656 182.109375 128.054688 188.097656 129.359375 188.976562 C 129.683594 185.695312 125.453125 181.910156 125.335938 178.425781 C 125.417969 175.160156 126.316406 171.96875 126.507812 168.710938 C 126.648438 167.675781 126.101562 166.746094 125.988281 165.742188 C 127.347656 166.375 127.191406 168.210938 127.921875 169.347656 C 132.671875 176.429688 131.460938 182.113281 130.769531 189.503906 C 130.773438 189.910156 130.527344 190.441406 130.921875 190.75 C 132.125 191.945312 140.089844 199.550781 141.683594 199.507812 C 141.722656 196.710938 137.765625 193.34375 136.058594 190.941406 C 134.355469 187.734375 135.160156 183.996094 134.652344 180.554688 C 134.582031 179.433594 133.632812 178.617188 133.585938 177.496094 C 134.878906 178.4375 135.253906 180.105469 136.402344 181.183594 C 138.570312 183.335938 140.078125 186.054688 141.289062 188.839844 C 142.046875 191.265625 142.136719 193.828125 142.535156 196.324219 C 142.878906 201.757812 143.167969 200.792969 144.707031 201.980469 C 147.9375 203.996094 151.234375 205.957031 154.730469 207.480469 C 154.632812 207.097656 154.707031 206.636719 154.425781 206.332031 C 152.78125 204.386719 150.34375 203.394531 148.484375 201.703125 C 146.242188 198.632812 145.125 191.511719 144.199219 189.28125 C 143.78125 188.527344 143.128906 187.941406 142.707031 187.1875 C 143.792969 187.277344 144.335938 188.300781 145.015625 189.011719 C 145.808594 189.96875 149.855469 192.375 152.121094 196.554688 C 154.199219 201.203125 155.75 208.113281 157.539062 208.816406 C 161.785156 210.621094 166.171875 212.109375 170.652344 213.210938 C 170.695312 213.03125 170.785156 212.675781 170.832031 212.5 C 169.699219 210.699219 166.160156 209.605469 162.914062 207.773438 C 159.355469 205.777344 159.589844 202.285156 157.003906 198.484375 C 156.28125 197.308594 154.660156 196.929688 154.21875 195.539062 C 155.820312 195.761719 156.96875 197.003906 158.34375 197.738281 C 159.882812 198.6875 161.632812 199.246094 163.109375 200.300781 C 167.753906 204.089844 169.660156 210.25 174.363281 213.976562 C 176.265625 214.460938 183.890625 215.644531 185.261719 215.398438 C 185.230469 213.128906 180.3125 213.183594 176.726562 211.039062 C 173.625 208.976562 173.007812 204.59375 169.609375 202.863281 C 169.09375 202.574219 168.636719 202.183594 168.328125 201.675781 C 169.804688 201.796875 171.136719 202.558594 172.554688 202.949219 C 174.566406 203.703125 176.839844 203.796875 178.664062 205.015625 C 182.699219 207.722656 184.550781 212.582031 188.433594 215.460938 C 189.085938 215.773438 189.867188 215.597656 190.570312 215.65625 C 191.417969 215.585938 192.40625 215.84375 193.128906 215.265625 C 194.417969 214.429688 195.195312 213.0625 196.265625 211.996094 C 203.613281 202.507812 203.296875 204.914062 208.660156 202.964844 C 210.066406 202.5 211.433594 201.828125 212.925781 201.675781 C 212.363281 202.777344 211.003906 203.019531 210.175781 203.863281 C 208.09375 205.960938 207.207031 209.015625 204.8125 210.847656 C 202.496094 212.460938 199.558594 212.683594 197.070312 213.929688 C 196.496094 214.15625 196.199219 214.703125 195.871094 215.183594 C 196.542969 215.722656 197.386719 215.324219 198.152344 215.320312 C 207.878906 214.144531 206.757812 214.164062 208.066406 212.933594 C 211.625 209.433594 213.628906 204.695312 217.152344 201.160156 C 218.730469 199.554688 220.953125 198.9375 222.832031 197.785156 C 224.1875 197.003906 225.394531 195.9375 226.910156 195.460938 C 226.902344 195.648438 226.886719 196.023438 226.875 196.210938 C 225.730469 197.117188 224.460938 197.980469 223.761719 199.304688 C 222.511719 201.296875 221.984375 203.648438 220.691406 205.617188 C 218.523438 209.101562 211 210.042969 210.3125 212.976562 C 212.847656 213.203125 221.773438 209.675781 224.257812 208.582031 C 227.96875 203.355469 226.640625 195.730469 235.445312 189.816406 C 236.605469 189.074219 237.03125 187.355469 238.523438 187.171875 C 238.113281 188.136719 237.125 188.753906 236.867188 189.792969 C 234.902344 197.183594 234.34375 199.398438 232.875 201.621094 C 231.070312 203.273438 228.714844 204.25 227.054688 206.078125 C 226.734375 206.433594 226.648438 206.917969 226.527344 207.367188 C 230.078125 206.125 237.457031 201.632812 238.171875 200.683594 C 238.597656 199.289062 238.851562 194.011719 239.589844 190.339844 C 240.085938 187.945312 241.414062 185.84375 242.710938 183.808594 C 243.65625 182.246094 245.222656 181.164062 246.082031 179.539062 C 246.460938 178.792969 246.925781 178.082031 247.566406 177.535156 C 247.613281 177.679688 247.714844 177.960938 247.765625 178.105469 C 245.464844 181.089844 247.300781 182.53125 245.960938 188.910156 C 245.753906 190.070312 245.242188 191.175781 244.421875 192.027344 C 239.554688 197.351562 239.78125 197.839844 239.664062 199.550781 C 241.636719 198.933594 248.070312 193.113281 250.644531 190.464844 C 250.25 188.707031 250.375 186.894531 250.074219 185.125 C 249.703125 179.839844 249.234375 178.222656 251.808594 172.066406 C 252.394531 170.554688 253.589844 169.355469 254.007812 167.773438 C 254.335938 167.035156 254.347656 165.878906 255.335938 165.726562 C 253.511719 169.890625 257.011719 176.542969 255.570312 180.328125 C 254.398438 183.171875 252.058594 185.621094 251.851562 188.804688 C 253.417969 188.28125 259.175781 180.460938 261.226562 177.214844 C 261.3125 175.3125 259.429688 168.769531 259.261719 167.945312 C 258.410156 163.960938 257.277344 165.328125 258.492188 159.324219 C 259.042969 156.597656 259.632812 157.421875 260.402344 151.890625 C 260.554688 151.835938 260.847656 151.734375 260.992188 151.683594 C 260.996094 152.652344 260.722656 153.632812 260.957031 154.59375 C 261.949219 157.792969 263.464844 160.835938 264.109375 164.136719 C 264.585938 167.011719 263.085938 169.640625 262.15625 172.25 C 262.097656 173.226562 261.871094 174.363281 262.488281 175.203125 C 264.816406 171.441406 266.753906 167.441406 268.382812 163.328125 C 268.746094 162.683594 268.296875 162.003906 268.121094 161.382812 C 266.699219 157.691406 265.359375 153.949219 263.507812 150.449219 C 261.207031 146.851562 263.285156 143.578125 262.96875 138.328125 C 263.117188 138.304688 263.414062 138.257812 263.558594 138.234375 C 263.578125 138.886719 263.550781 139.546875 263.648438 140.191406 C 265.140625 144.03125 268.519531 146.988281 269.246094 151.140625 C 269.019531 153.226562 267.566406 160.953125 269.605469 160.078125 C 270.113281 158.535156 273.460938 147.816406 272.46875 146.53125 C 264.285156 133.777344 263.964844 136.253906 263.121094 131.511719 C 262.816406 130.175781 263.0625 128.78125 262.730469 127.449219 C 262.539062 126.390625 261.9375 125.257812 262.5 124.21875 C 262.914062 125.296875 263.050781 126.539062 263.886719 127.40625 C 265.5625 129.25 267.453125 130.894531 269.125 132.746094 C 273.492188 138.101562 270.339844 140.765625 272.515625 144.324219 C 272.644531 144.648438 272.867188 144.734375 273.1875 144.578125 C 273.621094 142.535156 274.050781 135.011719 273.707031 131.179688 C 264.371094 121.59375 262.34375 123.5 260.253906 114.058594 C 259.941406 112.730469 258.988281 111.617188 258.949219 110.214844 C 259.84375 110.792969 259.925781 111.984375 260.765625 112.617188 C 263.476562 115.015625 267.019531 116.445312 269.265625 119.375 C 271.492188 122.792969 271.660156 127.566406 273.488281 127.800781 C 273.496094 124.171875 271.726562 116.457031 271.695312 116.175781 C 267.574219 113.128906 263.074219 110.640625 258.820312 107.800781 C 256.8125 105.738281 255.984375 102.859375 254.328125 100.546875 C 253.328125 99.417969 252.035156 98.570312 251.132812 97.351562 C 251.296875 97.183594 251.460938 97.019531 251.628906 96.851562 C 258.351562 102.421875 263.097656 101.769531 265.675781 106.507812 C 266.667969 107.90625 268.871094 113.492188 270.773438 113.085938 C 269.554688 108.34375 267.71875 103.742188 265.460938 99.398438 C 261.519531 97.574219 257.320312 96.351562 253.253906 94.824219 C 252.253906 94.421875 251.097656 94.214844 250.339844 93.386719 C 248.683594 91.699219 247.308594 89.757812 245.6875 88.039062 C 244.6875 86.996094 243.230469 86.617188 242.113281 85.742188 C 241.773438 85.53125 241.855469 85.082031 241.769531 84.753906 C 243.496094 85.25 244.941406 86.429688 246.703125 86.824219 C 249.59375 87.765625 252.71875 88.042969 255.417969 89.523438 C 259.070312 91.515625 260.59375 96.773438 264.109375 96.941406 C 262.144531 92.78125 259.371094 89.042969 256.601562 85.386719 C 255.867188 84.078125 250.375 84.011719 240.914062 82.464844 C 239.128906 82.164062 236.09375 79.257812 234.210938 77.777344 C 232.996094 76.828125 231.410156 76.683594 230.054688 76.03125 C 229.644531 75.882812 229.507812 75.441406 229.347656 75.089844 C 231.121094 75.183594 232.757812 76.050781 234.539062 76.085938 C 237.058594 76.417969 239.613281 76.410156 242.136719 76.710938 C 247.433594 77.429688 248.839844 82.789062 253.925781 82.78125 C 253.933594 82.058594 253.390625 81.566406 252.957031 81.066406 C 249.9375 77.96875 246.929688 74.808594 243.445312 72.230469 C 237.625 72.140625 227.605469 73.238281 226.144531 72.652344 C 224.066406 71.910156 222.183594 70.730469 220.230469 69.722656 C 218.605469 68.664062 216.5625 69.035156 214.785156 68.414062 C 214.765625 68.234375 214.726562 67.871094 214.707031 67.6875 C 224.441406 68.070312 225.25 66.40625 229.230469 66.980469 C 234.148438 68.128906 236.390625 72.003906 240.832031 70.378906 C 239.175781 68.550781 232.960938 64.914062 230.792969 63.734375 C 229.386719 63.492188 223.863281 65.15625 219.382812 63.21875 C 215.898438 61.578125 213.789062 58.0625 210.382812 56.328125 C 208.523438 55.320312 206.339844 55.964844 204.375 55.371094 C 205.359375 53.886719 207.398438 54.230469 208.914062 53.789062 C 227.792969 52.390625 229.386719 61.761719 232.464844 63.394531 C 234.746094 64.710938 237.015625 66.058594 239.167969 67.578125 C 239.59375 67.890625 240.054688 68.140625 240.554688 68.324219 C 239.988281 64.351562 234.003906 63.523438 230.996094 56.089844 C 229.945312 53.410156 228.257812 53.3125 228.152344 51.84375 C 229.273438 51.761719 229.996094 52.699219 230.839844 53.261719 C 232.277344 54.429688 234.167969 54.753906 235.679688 55.800781 C 240.253906 58.578125 241.269531 66.25 242.5 69.832031 C 243.449219 71.027344 244.914062 71.679688 245.964844 72.789062 C 247.882812 74.382812 249.644531 76.15625 251.457031 77.871094 C 252.242188 78.6875 252.941406 79.605469 253.878906 80.261719 C 254.011719 75.480469 247.316406 72.535156 246.546875 67.054688 C 246.300781 65.078125 245.972656 62.835938 244.273438 61.546875 C 243.320312 60.558594 241.734375 60.058594 241.335938 58.644531 C 242.6875 58.320312 243.5 59.503906 244.339844 60.316406 C 246.320312 62.375 248.878906 63.761719 250.878906 65.800781 C 255.988281 71.269531 254.828125 78.539062 255.4375 82.128906 C 257.886719 85.179688 260.316406 88.253906 262.386719 91.585938 C 262.839844 92.25 263.136719 93.09375 263.914062 93.460938 C 264.136719 89.492188 259.738281 86.480469 259.738281 80.324219 C 259.746094 78.410156 259.746094 76.457031 259.09375 74.632812 C 258.339844 72.589844 255.671875 70.945312 255.519531 69.570312 C 255.851562 69.554688 256.1875 69.535156 256.523438 69.527344 C 257.347656 70.386719 258.085938 71.328125 258.761719 72.308594 C 260.96875 75.117188 264.226562 77.308594 265.238281 80.898438 C 266.179688 85.171875 264.910156 89.507812 265.074219 93.8125 C 264.777344 97.050781 266.84375 97.898438 270.839844 109.117188 C 270.992188 109.15625 271.296875 109.226562 271.449219 109.265625 C 271.6875 104.882812 268.488281 101.453125 270.015625 95.625 C 270.300781 93.875 270.757812 92.109375 270.503906 90.328125 C 269.914062 87.914062 268.078125 86.070312 267.300781 83.734375 C 267.652344 83.730469 268.164062 83.445312 268.425781 83.816406 C 270.023438 85.75 270.96875 88.101562 272.292969 90.210938 C 273.65625 92.695312 275.152344 95.304688 275.183594 98.21875 C 275.003906 102.898438 273.289062 107.304688 272.222656 111.816406 C 271.699219 113.984375 273.464844 116.167969 274.265625 124.367188 C 274.4375 124.410156 274.785156 124.496094 274.960938 124.539062 C 275.246094 121.527344 274.21875 118.5 274.878906 115.5 C 275.425781 112.699219 277.339844 110.402344 277.917969 107.613281 C 278.308594 104.960938 276.582031 102.644531 276.363281 100.0625 C 276.566406 100.0625 276.976562 100.066406 277.179688 100.070312 C 277.910156 101.109375 281.441406 110.433594 280.515625 115.714844 C 278.980469 120.894531 275.328125 125.804688 274.746094 128.167969 C 275.269531 133.109375 275.007812 138.089844 274.589844 143.027344 C 276.925781 142.808594 275.300781 135.335938 279.058594 130.292969 C 284.152344 123.167969 281.5 122.929688 282.007812 117.640625 C 282.199219 117.65625 282.582031 117.691406 282.769531 117.710938 C 283.492188 119.917969 283.421875 122.28125 283.597656 124.574219 C 283.980469 126.542969 283.871094 128.554688 283.882812 130.546875 C 284.027344 134.136719 280.511719 138.113281 277.859375 141.460938 C 274.742188 145.480469 274.179688 144.605469 273.832031 148.148438 C 273.320312 151.46875 272.335938 154.691406 271.605469 157.964844 C 273.125 157.671875 273.453125 152.808594 275.640625 149.785156 C 277.089844 147.238281 281.007812 145.933594 282.027344 142.347656 C 282.429688 140.855469 282.546875 139.292969 283.050781 137.824219 C 283.28125 137.386719 283.984375 137.773438 283.871094 138.226562 C 283.609375 140.84375 282.789062 143.386719 282.578125 146.019531 C 281.070312 152.082031 281.414062 151.523438 277.746094 154.8125 C 275.738281 156.660156 273.527344 158.265625 271.359375 159.921875 C 270.460938 160.535156 270.25 161.675781 269.875 162.628906 C 268.792969 165.796875 267.144531 168.730469 265.867188 171.8125 C 268.453125 171.65625 268.824219 163.886719 274.484375 162.246094 C 281.054688 160.109375 279.308594 156.53125 281.371094 155.457031 C 281.527344 156.121094 281.445312 156.804688 281.179688 157.433594 C 275.777344 170.757812 274.398438 168.378906 264.78125 173.621094 C 264.394531 174.113281 261.054688 180.371094 255.988281 186.238281 C 255.910156 186.433594 255.753906 186.824219 255.675781 187.019531 C 259.550781 185.835938 259.9375 181.007812 264.738281 178.914062 C 266.59375 178.191406 268.660156 177.96875 270.347656 176.84375 C 273.390625 174.792969 272.140625 175.269531 274.921875 171.421875 C 275.113281 171.425781 275.492188 171.4375 275.683594 171.445312 C 275.820312 173.304688 274.382812 174.707031 273.570312 176.25 C 267.972656 185.035156 268.921875 183.390625 255.359375 188.515625 C 254.535156 188.847656 253.597656 189.015625 252.960938 189.691406 C 245.417969 197.667969 243.523438 197.539062 243.242188 199.097656 C 247.652344 198.191406 249.640625 193.230469 253.996094 192.246094 C 256.265625 191.679688 258.738281 192.585938 260.917969 191.527344 C 262.109375 190.800781 263.011719 189.703125 264.125 188.871094 C 264.691406 188.515625 264.964844 189.449219 264.640625 189.816406 C 263.605469 191.496094 257.707031 197.21875 254.570312 198.589844 C 251.316406 200.128906 241.609375 199.792969 240.429688 200.65625 C 237.265625 202.941406 233.949219 205.03125 230.464844 206.789062 C 229.917969 207.074219 229.328125 207.328125 229.003906 207.886719 C 229.863281 207.917969 230.757812 207.992188 231.597656 207.742188 C 234.386719 207.027344 236.152344 204.222656 239.066406 203.816406 C 241.445312 203.65625 243.859375 204.097656 246.214844 203.59375 C 250 202.867188 248.085938 203.609375 252.511719 200.8125 C 252.65625 200.902344 252.941406 201.085938 253.085938 201.179688 C 252.582031 202.722656 251.03125 203.527344 249.792969 204.421875 C 246.550781 206.667969 243.171875 209.339844 239.050781 209.484375 C 226.472656 208.78125 226.742188 208.539062 225.53125 209.226562 C 222.644531 210.546875 219.667969 211.664062 216.648438 212.640625 C 215.730469 212.941406 214.785156 213.171875 213.925781 213.609375 C 216.480469 215.410156 220.417969 212.6875 222.875 211.886719 C 224.382812 211.417969 225.855469 212.203125 227.300781 212.546875 C 229.355469 213.136719 231.523438 212.957031 233.632812 212.914062 C 235.578125 212.980469 237.097656 211.574219 238.914062 211.128906 C 239.015625 211.246094 239.21875 211.480469 239.320312 211.601562 C 238.164062 212.902344 236.484375 213.550781 234.898438 214.175781 C 231.132812 215.636719 227.300781 217.339844 223.179688 217.289062 C 215.277344 216.3125 213.171875 214.652344 211.445312 214.164062 C 200.546875 216.984375 199.132812 215.585938 197.9375 216.886719 C 199.121094 217.261719 200.367188 217.792969 201.628906 217.441406 C 203.558594 217.167969 205.558594 216.359375 207.484375 217.054688 C 208.53125 217.394531 209.378906 218.132812 210.382812 218.5625 C 212.527344 219.597656 216.625 220.320312 221.582031 219.332031 C 221.671875 219.46875 221.851562 219.746094 221.9375 219.882812 C 220.589844 221.019531 218.722656 221.015625 217.066406 221.289062 C 205.722656 223.347656 205.464844 222.296875 201.578125 220.515625 C 199.449219 219.480469 197.40625 218.265625 195.546875 216.796875 C 194.773438 216.679688 193.984375 216.761719 193.210938 216.800781 C 193.847656 217.699219 194.949219 218.074219 195.789062 218.757812 C 204.601562 225.402344 204.386719 229.644531 212.433594 229.695312 C 208.710938 230.984375 204.714844 231.636719 200.773438 231.417969 C 198.59375 221.171875 192.484375 216.796875 190.316406 217.0625 C 184.996094 218.660156 181.757812 225.835938 180.449219 231.46875 C 176.492188 231.5625 172.484375 231.023438 168.757812 229.667969 C 177.136719 229.535156 177.042969 224.953125 185.933594 218.433594 C 186.589844 217.902344 187.523438 217.632812 187.863281 216.796875 C 186.996094 216.835938 185.972656 216.449219 185.265625 217.121094 C 183.101562 218.789062 180.6875 220.101562 178.210938 221.226562 C 174.457031 223.265625 170.023438 222.289062 166.03125 221.640625 C 163.933594 221.019531 161.609375 221.277344 159.652344 220.195312 C 159.566406 219.914062 159.5 219.625 159.449219 219.332031 C 161.117188 219.46875 162.75 220.03125 164.433594 219.875 C 166.214844 219.628906 168.050781 219.652344 169.765625 219.035156 C 171.707031 218.488281 173.21875 216.8125 175.3125 216.738281 C 177 216.820312 178.628906 217.34375 180.300781 217.546875 C 181.28125 217.675781 182.199219 217.269531 183.113281 216.992188 C 183.128906 216.867188 183.15625 216.609375 183.171875 216.484375 C 178.660156 215.976562 174.15625 215.285156 169.75 214.144531 C 166.242188 215.839844 162.398438 216.703125 158.558594 217.253906 C 154.082031 217.472656 149.929688 215.507812 145.824219 214 C 144.605469 213.445312 143.292969 212.953125 142.351562 211.957031 C 141.988281 211.65625 142.121094 210.890625 142.703125 211.246094 C 145.664062 212.292969 145.308594 213.355469 152.652344 212.859375 C 154.65625 212.664062 156.582031 211.273438 158.625 211.972656 C 161.832031 212.898438 162.730469 214.757812 166.792969 213.992188 C 166.886719 213.84375 167.066406 213.542969 167.160156 213.394531 C 163.21875 212.316406 159.367188 210.902344 155.660156 209.183594 C 154.585938 208.570312 153.332031 208.839844 152.164062 208.886719 C 149.496094 209.210938 146.792969 209.023438 144.132812 209.386719 C 142.449219 209.597656 140.730469 209.449219 139.109375 208.941406 C 135.835938 207.804688 129.519531 203.234375 128.480469 202.019531 C 128.304688 201.65625 128.265625 200.800781 128.859375 200.871094 C 130.707031 202.003906 132.070312 204.351562 140.933594 203.78125 C 145.472656 203.359375 147.378906 208.753906 152.265625 207.851562 C 151.980469 207.527344 151.648438 207.261719 151.269531 207.078125 C 147.636719 205.144531 144.09375 203.027344 140.75 200.625 C 138.539062 199.949219 136.152344 200.152344 133.878906 199.761719 C 128.066406 199.402344 126.164062 199.242188 121.375 194.734375 C 119.664062 193.074219 117.691406 191.628906 116.449219 189.550781 C 116.523438 189.332031 116.675781 188.902344 116.75 188.683594 C 118.179688 189.414062 119.066406 190.851562 120.476562 191.605469 C 122.914062 192.632812 125.664062 191.507812 128.117188 192.492188 C 131.976562 193.851562 133.90625 198.4375 138.136719 199.003906 C 137.914062 198.59375 137.636719 198.222656 137.261719 197.941406 C 134.117188 195.429688 131.152344 192.699219 128.410156 189.753906 C 127.28125 188.375 115.652344 185.703125 112.648438 182.890625 C 109.992188 180.351562 108.1875 177.105469 106.335938 173.976562 C 105.851562 173.089844 105.070312 171.953125 106.007812 171.089844 C 108.148438 173.332031 107.730469 175.082031 111.394531 177.136719 C 113.339844 178.230469 115.679688 178.3125 117.597656 179.464844 C 121.015625 181.351562 122.457031 186.542969 125.871094 187.078125 C 125.171875 185.933594 124.199219 185 123.375 183.945312 C 111.898438 168.738281 122.003906 177.074219 107.546875 169.183594 C 104.84375 167.667969 103.082031 163.957031 101.199219 160.042969 C 100.585938 158.566406 99.566406 157.117188 99.972656 155.4375 C 101.425781 156.632812 101.398438 158.863281 102.871094 160.078125 C 104.53125 161.957031 107.277344 161.960938 109.1875 163.472656 C 112.4375 165.910156 112.96875 171.117188 115.460938 172.058594 C 115.371094 171.632812 115.261719 171.207031 115.042969 170.828125 C 110.53125 161.835938 111.175781 160.738281 110.152344 160.121094 C 99.84375 152.410156 99.824219 151.609375 98.820312 146.597656 C 98.09375 141.136719 97.195312 139.390625 97.519531 137.664062 C 97.699219 137.660156 98.054688 137.65625 98.234375 137.648438 C 98.867188 139.910156 98.800781 142.472656 100.320312 144.390625 C 101.859375 146.578125 104.445312 147.753906 105.855469 150.042969 C 108.246094 153.898438 108.003906 157.539062 109.660156 157.734375 C 108.722656 154.089844 107.667969 150.457031 107.230469 146.710938 C 107.066406 144.667969 102.625 141.597656 98.433594 134.589844 C 96.847656 131.550781 97.359375 128.007812 97.652344 124.738281 C 98.070312 122.40625 97.542969 119.886719 98.578125 117.6875 C 98.777344 117.683594 99.167969 117.675781 99.359375 117.671875 C 99.515625 119.8125 98.921875 121.921875 99.085938 124.054688 C 100.078125 129.203125 103.863281 130.121094 104.714844 136.980469 C 105.105469 139.335938 105.191406 142.738281 106.667969 142.746094 C 106.445312 138.777344 105.949219 134.792969 106.347656 130.8125 C 106.324219 129.519531 106.828125 128.089844 106.101562 126.914062 C 100.902344 117.050781 99.117188 115.351562 101.722656 106.816406 C 102.359375 104.746094 102.765625 102.582031 103.773438 100.648438 C 103.988281 100.210938 104.445312 100 104.824219 99.738281 C 104.992188 102.152344 103.277344 104.296875 103.273438 106.710938 C 103.523438 109.933594 105.84375 112.488281 106.425781 115.613281 C 106.953125 121.699219 105.535156 122.945312 106.578125 124.644531 C 107.445312 123.578125 106.601562 123.414062 108.96875 114.027344 C 109.429688 111.796875 108.429688 109.660156 107.871094 107.550781 C 105.238281 96.738281 105.160156 97.027344 110.222656 88.050781 C 111.101562 86.597656 111.753906 84.976562 112.933594 83.722656 C 113.25 83.640625 113.570312 83.59375 113.898438 83.578125 C 113.378906 86.246094 110.925781 88.152344 110.707031 90.921875 C 110.566406 93.980469 111.976562 96.921875 111.5625 99.992188 C 111.449219 103.1875 109.554688 106.09375 109.917969 109.339844 C 110.054688 109.316406 110.332031 109.277344 110.472656 109.257812 C 111.683594 105.117188 113.589844 101.21875 115.472656 97.351562 C 116.878906 94.527344 115.707031 88.089844 115.765625 85.589844 C 115.867188 80.9375 114.890625 80.121094 121.234375 73.820312 C 122.511719 72.539062 123.332031 70.863281 124.703125 69.664062 C 125.007812 69.566406 125.316406 69.492188 125.636719 69.453125 C 125.558594 69.902344 125.613281 70.441406 125.21875 70.765625 C 121.261719 74.984375 121.9375 74.40625 121.472656 80.613281 C 121.660156 85.792969 117.273438 89.667969 117.328125 93.347656 C 118.554688 93.078125 117.445312 92.664062 125.753906 82.253906 C 126.382812 79.742188 125.546875 73.707031 128.40625 68.34375 C 129.8125 65.914062 132.136719 64.226562 134.328125 62.554688 C 135.820312 61.527344 136.960938 60.09375 138.367188 58.96875 C 138.722656 58.636719 139.226562 58.621094 139.675781 58.511719 C 139.675781 58.726562 139.679688 59.160156 139.679688 59.375 C 138.511719 60.476562 137.054688 61.265625 136.054688 62.539062 C 134.480469 64.714844 135.132812 67.65625 133.753906 69.90625 C 131.65625 73.660156 127.558594 76.207031 127.394531 80.148438 C 128.34375 79.609375 128.988281 78.695312 129.753906 77.9375 C 131.285156 76.429688 132.789062 74.894531 134.453125 73.527344 C 135.742188 72.253906 137.332031 71.320312 138.589844 70.015625 C 140.027344 67.542969 140.265625 58.519531 146.441406 55.304688 C 147.773438 54.550781 149.3125 54.175781 150.519531 53.203125 Z M 150.519531 53.203125 " fill-opacity="1" fill-rule="nonzero"/></g><path fill="#ffbd59" d="M 188.925781 74.53125 C 190.035156 74.441406 191.148438 74.472656 192.257812 74.542969 C 192.578125 77.566406 192.246094 80.625 192.4375 83.660156 C 194.429688 81.671875 195.667969 79.019531 197.691406 77.058594 C 197.492188 98.855469 197.992188 98.925781 197.40625 99.796875 C 195.773438 102.058594 193.988281 104.21875 192.449219 106.546875 C 192.332031 107.996094 192.3125 109.492188 192.496094 110.9375 C 198.570312 105.421875 203.703125 107.140625 214.511719 105.867188 C 218.910156 105.171875 223.578125 104.214844 227.027344 101.1875 C 228.175781 100.191406 228.6875 98.734375 229.03125 97.300781 C 230.355469 95.769531 232.96875 95.492188 234.496094 96.875 C 235.585938 98.222656 235.511719 100.257812 234.511719 101.632812 C 233.773438 102.507812 232.648438 102.875 231.703125 103.460938 C 231.945312 104.085938 252.882812 151.164062 254.277344 152.324219 C 240.996094 165.933594 219.472656 164.957031 207.550781 152.28125 C 208.960938 151.730469 206.980469 155.300781 228.960938 106.890625 C 229.378906 105.988281 229.816406 105.089844 230.101562 104.132812 C 218.234375 107 197.269531 108.382812 192.539062 119.308594 C 192.324219 119.8125 192.289062 186.074219 192.476562 187.792969 C 193.996094 186.976562 195.519531 186.164062 197.082031 185.425781 C 195.277344 189.925781 193.054688 194.246094 191.148438 198.703125 C 190.949219 198.960938 190.933594 199.707031 190.464844 199.40625 C 188.351562 194.730469 186.195312 190.078125 184.101562 185.398438 C 185.757812 186.070312 187.234375 187.125 188.902344 187.785156 C 188.945312 177.410156 188.949219 123.875 188.902344 119.671875 C 184.507812 108.3125 161.679688 106.742188 151.191406 104.128906 C 151.40625 104.980469 150.128906 102.082031 172.347656 151.042969 C 172.542969 151.679688 173.035156 152.078125 173.613281 152.359375 C 161.480469 165.378906 139.3125 165.457031 127.089844 152.324219 C 128.238281 151.308594 148.867188 105.199219 149.539062 103.460938 C 148.621094 102.917969 147.601562 102.488281 146.832031 101.742188 C 144.195312 98.191406 147.839844 93.875 152.109375 97.046875 C 152.832031 98.605469 152.332031 101.613281 159.867188 104.300781 C 171.25 108.210938 180.5625 104.25 187.445312 109.894531 C 187.917969 110.269531 188.386719 110.644531 188.898438 110.964844 C 188.933594 109.558594 188.960938 108.148438 188.917969 106.742188 C 187.355469 104.230469 185.363281 101.996094 183.722656 99.53125 C 183.601562 98.746094 183.671875 77.148438 183.671875 77.039062 C 186.25 80.050781 187.765625 82.855469 188.894531 83.675781 C 188.992188 80.625 188.902344 77.578125 188.925781 74.53125 M 189.871094 76.421875 C 190 77.878906 189.578125 79.433594 190.148438 80.820312 C 191.519531 80.214844 191.359375 82.066406 191.332031 76.316406 C 190.847656 76.351562 190.359375 76.382812 189.871094 76.421875 M 192.8125 85.789062 C 192.101562 86.578125 192.351562 87.722656 192.253906 88.691406 C 192.40625 88.652344 192.699219 88.570312 192.847656 88.527344 C 193.890625 87.285156 194.777344 85.90625 195.792969 84.636719 C 196.601562 83.71875 196.257812 82.414062 196.234375 81.308594 C 194.988281 82.71875 193.984375 84.316406 192.8125 85.789062 M 184.890625 81.527344 C 184.890625 82.296875 184.855469 83.066406 184.902344 83.835938 C 185.648438 85.117188 186.660156 86.21875 187.511719 87.429688 C 187.914062 87.960938 188.199219 88.699219 188.964844 88.761719 C 188.929688 87.925781 189.078125 87.054688 188.835938 86.242188 C 188.136719 85.171875 187.277344 84.226562 186.574219 83.160156 C 186.105469 82.53125 185.746094 81.679688 184.890625 81.527344 M 194.773438 88.355469 C 193.976562 89.519531 193.011719 90.566406 192.277344 91.769531 C 192.195312 92.453125 192.222656 93.148438 192.222656 93.839844 C 192.375 93.769531 192.679688 93.636719 192.832031 93.574219 C 197.238281 87.542969 196.230469 89.644531 196.304688 86.664062 C 195.570312 86.992188 195.230469 87.746094 194.773438 88.355469 M 184.878906 86.730469 C 184.894531 87.40625 184.796875 88.105469 184.960938 88.773438 C 185.5625 89.824219 186.394531 90.714844 187.082031 91.703125 C 187.628906 92.457031 188.085938 93.328125 188.929688 93.804688 C 188.953125 93.121094 188.992188 92.433594 188.910156 91.753906 C 187.945312 90.0625 186.644531 88.597656 185.480469 87.046875 C 185.328125 86.96875 185.03125 86.808594 184.878906 86.730469 M 184.90625 91.609375 C 184.871094 92.339844 184.84375 93.078125 184.914062 93.808594 C 185.578125 94.820312 186.394531 95.726562 187.046875 96.75 C 187.554688 97.421875 187.984375 98.316406 188.910156 98.453125 C 188.894531 97.800781 189.019531 97.132812 188.878906 96.492188 C 185.832031 92.152344 185.585938 91.925781 184.90625 91.609375 M 194.261719 94.007812 C 193.671875 94.875 192.984375 95.671875 192.402344 96.546875 C 192.34375 97.242188 192.375 97.941406 192.394531 98.640625 C 192.722656 98.464844 193.074219 98.292969 193.265625 97.953125 C 194.242188 96.542969 195.375 95.246094 196.320312 93.820312 C 196.390625 93.046875 196.339844 92.269531 196.273438 91.5 C 195.386719 92.144531 194.894531 93.144531 194.261719 94.007812 M 194.28125 99.011719 C 193.617188 99.933594 192.835938 100.773438 192.289062 101.773438 C 192.175781 102.398438 192.355469 103.023438 192.410156 103.644531 C 193.820312 102.695312 194.515625 101 195.652344 99.765625 C 196.539062 98.949219 196.328125 97.710938 196.28125 96.636719 C 195.394531 97.222656 194.925781 98.203125 194.28125 99.011719 M 184.867188 96.804688 C 184.882812 97.457031 184.820312 98.117188 184.9375 98.765625 C 185.53125 99.746094 186.296875 100.605469 186.925781 101.5625 C 187.535156 102.347656 188.015625 103.300781 188.929688 103.78125 C 188.78125 100.730469 189.90625 103.050781 185.984375 97.554688 C 185.730469 97.148438 185.328125 96.90625 184.867188 96.804688 M 129.917969 149.199219 C 129.511719 150.144531 128.960938 151.046875 128.800781 152.082031 C 143.09375 152.132812 157.386719 152.113281 171.679688 152.089844 C 170.96875 150.054688 150.796875 105.601562 150.109375 104.839844 C 143.320312 119.597656 136.652344 134.414062 129.917969 149.199219 M 230.867188 105.003906 C 208.617188 154.023438 209.8125 151.132812 209.667969 152.09375 C 223.960938 152.117188 238.253906 152.117188 252.546875 152.09375 C 252.214844 150.910156 240.152344 124.632812 231.589844 105.699219 C 231.441406 105.363281 231.320312 104.949219 230.867188 105 Z M 230.867188 105.003906 " fill-opacity="1" fill-rule="nonzero"/><g clip-path="url(#f9597a87cb)"><g clip-path="url(#2f22f08256)"><path fill="#000000" d="M 177 97.125 L 195.523438 97.125 L 195.523438 150.238281 L 177 150.238281 Z M 177 97.125 " fill-opacity="1" fill-rule="nonzero"/></g></g><g clip-path="url(#739578922a)"><g clip-path="url(#5be413172e)"><path fill="url(#dff5edd9a9)" d="M 118.3125 63.070312 L 118.3125 204.65625 L 259.902344 204.65625 L 259.902344 63.070312 Z M 118.3125 63.070312 " fill-rule="nonzero"/></g></g><g fill="#ffffff" fill-opacity="1"><g transform="translate(88.844862, 254.327331)"><g><path d="M 10.207031 -4.277344 C 9.6875 -3.167969 8.425781 -2.40625 7.132812 -2.40625 C 5.09375 -2.40625 3.464844 -4.148438 3.464844 -6.296875 C 3.464844 -8.425781 5.09375 -10.1875 7.132812 -10.1875 C 8.410156 -10.1875 9.667969 -9.484375 10.1875 -8.351562 L 13.28125 -8.351562 C 12.429688 -10.929688 10 -12.78125 7.132812 -12.78125 C 3.554688 -12.78125 0.648438 -9.871094 0.648438 -6.296875 C 0.648438 -2.722656 3.554688 0.183594 7.132812 0.183594 C 10 0.183594 12.445312 -1.683594 13.296875 -4.277344 Z M 10.207031 -4.277344 "/></g></g></g><g fill="#ffffff" fill-opacity="1"><g transform="translate(103.347648, 254.327331)"><g><path d="M 0.964844 -1.425781 C 0.964844 -0.539062 1.683594 0.183594 2.59375 0.183594 C 3.480469 0.183594 4.222656 -0.539062 4.222656 -1.425781 C 4.222656 -2.332031 3.480469 -3.054688 2.59375 -3.054688 C 1.683594 -3.054688 0.964844 -2.332031 0.964844 -1.425781 Z M 0.964844 -1.425781 "/></g></g></g><g fill="#ffffff" fill-opacity="1"><g transform="translate(109.274721, 254.327331)"><g/></g></g><g fill="#ffffff" fill-opacity="1"><g transform="translate(114.646111, 254.327331)"><g><path d="M 3.890625 -4.5 L 3.90625 -4.5 L 6.910156 0 L 10.429688 0 L 6.816406 -4.628906 C 8.410156 -5.019531 9.6875 -6.425781 9.6875 -8.558594 C 9.6875 -10.945312 7.871094 -12.59375 5.835938 -12.59375 L 1.109375 -12.59375 L 1.109375 0 L 3.890625 0 Z M 5.371094 -10.410156 C 6.1875 -10.410156 7.039062 -9.707031 7.039062 -8.558594 C 7.039062 -7.351562 6.1875 -6.6875 5.371094 -6.6875 L 3.890625 -6.6875 L 3.890625 -10.410156 Z M 5.371094 -10.410156 "/></g></g></g><g fill="#ffffff" fill-opacity="1"><g transform="translate(125.592657, 254.327331)"><g><path d="M 8.410156 -2.519531 L 3.890625 -2.519531 L 3.890625 -5.054688 L 8.222656 -5.054688 L 8.222656 -7.574219 L 3.890625 -7.574219 L 3.890625 -10.074219 L 8.410156 -10.074219 L 8.410156 -12.59375 L 1.109375 -12.59375 L 1.109375 0 L 8.410156 0 Z M 8.410156 -2.519531 "/></g></g></g><g fill="#ffffff" fill-opacity="1"><g transform="translate(135.853889, 254.327331)"><g><path d="M 3.890625 0 L 3.890625 -12.59375 L 1.109375 -12.59375 L 1.109375 0 Z M 3.890625 0 "/></g></g></g><g fill="#ffffff" fill-opacity="1"><g transform="translate(141.595727, 254.327331)"><g><path d="M 6 -1.964844 C 4.628906 -1.964844 3.445312 -2.648438 3.371094 -4.148438 L 0.554688 -4.148438 C 0.574219 -1.074219 3.113281 0.296875 5.890625 0.296875 C 8.464844 0.296875 11.113281 -0.796875 11.113281 -3.761719 C 11.113281 -8.558594 3.835938 -6.945312 3.835938 -9.1875 C 3.835938 -10.132812 4.925781 -10.5 5.703125 -10.5 C 7.09375 -10.5 7.851562 -10.074219 8 -8.761719 L 10.6875 -8.761719 C 10.59375 -11.632812 8.261719 -12.78125 5.667969 -12.78125 C 3.371094 -12.78125 0.964844 -11.558594 0.964844 -8.964844 C 0.964844 -4.316406 8.242188 -5.890625 8.242188 -3.445312 C 8.242188 -2.316406 6.871094 -1.964844 6 -1.964844 Z M 6 -1.964844 "/></g></g></g><g fill="#ffffff" fill-opacity="1"><g transform="translate(154.005528, 254.327331)"><g/></g></g><g fill="#ffffff" fill-opacity="1"><g transform="translate(159.376918, 254.327331)"><g><path d="M 10.207031 -4.277344 C 9.6875 -3.167969 8.425781 -2.40625 7.132812 -2.40625 C 5.09375 -2.40625 3.464844 -4.148438 3.464844 -6.296875 C 3.464844 -8.425781 5.09375 -10.1875 7.132812 -10.1875 C 8.410156 -10.1875 9.667969 -9.484375 10.1875 -8.351562 L 13.28125 -8.351562 C 12.429688 -10.929688 10 -12.78125 7.132812 -12.78125 C 3.554688 -12.78125 0.648438 -9.871094 0.648438 -6.296875 C 0.648438 -2.722656 3.554688 0.183594 7.132812 0.183594 C 10 0.183594 12.445312 -1.683594 13.296875 -4.277344 Z M 10.207031 -4.277344 "/></g></g></g><g fill="#ffffff" fill-opacity="1"><g transform="translate(173.879704, 254.327331)"><g><path d="M 10.835938 -6.316406 C 10.835938 -4.371094 9.074219 -2.59375 7.132812 -2.59375 C 5.1875 -2.59375 3.425781 -4.371094 3.425781 -6.316406 C 3.425781 -8.261719 5.1875 -10.019531 7.132812 -10.019531 C 9.074219 -10.019531 10.835938 -8.261719 10.835938 -6.316406 Z M 13.613281 -6.296875 C 13.613281 -9.78125 10.613281 -12.78125 7.132812 -12.78125 C 3.648438 -12.78125 0.648438 -9.78125 0.648438 -6.296875 C 0.648438 -2.816406 3.648438 0.183594 7.132812 0.183594 C 10.613281 0.183594 13.613281 -2.816406 13.613281 -6.296875 Z M 13.613281 -6.296875 "/></g></g></g><g fill="#ffffff" fill-opacity="1"><g transform="translate(188.882591, 254.327331)"><g><path d="M 11.003906 0 L 11.003906 -12.59375 L 8.222656 -12.59375 L 8.222656 -4.742188 L 3.890625 -12.59375 L 1.109375 -12.59375 L 1.109375 0 L 3.890625 0 L 3.890625 -7.851562 L 8.222656 0 Z M 11.003906 0 "/></g></g></g><g fill="#ffffff" fill-opacity="1"><g transform="translate(201.736915, 254.327331)"><g><path d="M 6 -1.964844 C 4.628906 -1.964844 3.445312 -2.648438 3.371094 -4.148438 L 0.554688 -4.148438 C 0.574219 -1.074219 3.113281 0.296875 5.890625 0.296875 C 8.464844 0.296875 11.113281 -0.796875 11.113281 -3.761719 C 11.113281 -8.558594 3.835938 -6.945312 3.835938 -9.1875 C 3.835938 -10.132812 4.925781 -10.5 5.703125 -10.5 C 7.09375 -10.5 7.851562 -10.074219 8 -8.761719 L 10.6875 -8.761719 C 10.59375 -11.632812 8.261719 -12.78125 5.667969 -12.78125 C 3.371094 -12.78125 0.964844 -11.558594 0.964844 -8.964844 C 0.964844 -4.316406 8.242188 -5.890625 8.242188 -3.445312 C 8.242188 -2.316406 6.871094 -1.964844 6 -1.964844 Z M 6 -1.964844 "/></g></g></g><g fill="#ffffff" fill-opacity="1"><g transform="translate(214.14671, 254.327331)"><g><path d="M 8.464844 -12.59375 L 8.464844 -5.316406 C 8.464844 -3.574219 7.945312 -2.59375 6.039062 -2.59375 C 4.148438 -2.59375 3.613281 -3.574219 3.613281 -5.316406 L 3.613281 -12.59375 L 0.832031 -12.59375 L 0.832031 -4.910156 C 0.832031 -1.554688 2.761719 0.183594 6.039062 0.183594 C 9.316406 0.183594 11.242188 -1.554688 11.242188 -4.910156 L 11.242188 -12.59375 Z M 8.464844 -12.59375 "/></g></g></g><g fill="#ffffff" fill-opacity="1"><g transform="translate(226.963976, 254.327331)"><g><path d="M 1.109375 0 L 8.410156 0 L 8.410156 -2.519531 L 3.890625 -2.519531 L 3.890625 -12.59375 L 1.109375 -12.59375 Z M 1.109375 0 "/></g></g></g><g fill="#ffffff" fill-opacity="1"><g transform="translate(236.762161, 254.327331)"><g><path d="M 6.464844 -10.074219 L 10.058594 -10.074219 L 10.058594 -12.59375 L 0.09375 -12.59375 L 0.09375 -10.074219 L 3.6875 -10.074219 L 3.6875 0 L 6.464844 0 Z M 6.464844 -10.074219 "/></g></g></g><g fill="#ffffff" fill-opacity="1"><g transform="translate(247.653153, 254.327331)"><g><path d="M 10.835938 -6.316406 C 10.835938 -4.371094 9.074219 -2.59375 7.132812 -2.59375 C 5.1875 -2.59375 3.425781 -4.371094 3.425781 -6.316406 C 3.425781 -8.261719 5.1875 -10.019531 7.132812 -10.019531 C 9.074219 -10.019531 10.835938 -8.261719 10.835938 -6.316406 Z M 13.613281 -6.296875 C 13.613281 -9.78125 10.613281 -12.78125 7.132812 -12.78125 C 3.648438 -12.78125 0.648438 -9.78125 0.648438 -6.296875 C 0.648438 -2.816406 3.648438 0.183594 7.132812 0.183594 C 10.613281 0.183594 13.613281 -2.816406 13.613281 -6.296875 Z M 13.613281 -6.296875 "/></g></g></g><g fill="#ffffff" fill-opacity="1"><g transform="translate(262.656034, 254.327331)"><g><path d="M 3.890625 -4.5 L 3.90625 -4.5 L 6.910156 0 L 10.429688 0 L 6.816406 -4.628906 C 8.410156 -5.019531 9.6875 -6.425781 9.6875 -8.558594 C 9.6875 -10.945312 7.871094 -12.59375 5.835938 -12.59375 L 1.109375 -12.59375 L 1.109375 0 L 3.890625 0 Z M 5.371094 -10.410156 C 6.1875 -10.410156 7.039062 -9.707031 7.039062 -8.558594 C 7.039062 -7.351562 6.1875 -6.6875 5.371094 -6.6875 L 3.890625 -6.6875 L 3.890625 -10.410156 Z M 5.371094 -10.410156 "/></g></g></g><g fill="#ffffff" fill-opacity="1"><g transform="translate(273.602585, 254.327331)"><g><path d="M 3.890625 0 L 3.890625 -12.59375 L 1.109375 -12.59375 L 1.109375 0 Z M 3.890625 0 "/></g></g></g><g fill="#ffffff" fill-opacity="1"><g transform="translate(279.344429, 254.327331)"><g><path d="M 7.964844 -4.816406 L 4.777344 -4.816406 L 6.371094 -9.296875 Z M 12.667969 0 L 7.558594 -12.59375 L 5.203125 -12.59375 L 0.09375 0 L 3.074219 0 L 3.980469 -2.539062 L 8.78125 -2.539062 L 9.6875 0 Z M 12.667969 0 "/></g></g></g><g fill="#ffffff" fill-opacity="1"><g transform="translate(78.739784, 279.023273)"><g><path d="M 10.207031 -4.277344 C 9.6875 -3.167969 8.425781 -2.40625 7.132812 -2.40625 C 5.09375 -2.40625 3.464844 -4.148438 3.464844 -6.296875 C 3.464844 -8.425781 5.09375 -10.1875 7.132812 -10.1875 C 8.410156 -10.1875 9.667969 -9.484375 10.1875 -8.351562 L 13.28125 -8.351562 C 12.429688 -10.929688 10 -12.78125 7.132812 -12.78125 C 3.554688 -12.78125 0.648438 -9.871094 0.648438 -6.296875 C 0.648438 -2.722656 3.554688 0.183594 7.132812 0.183594 C 10 0.183594 12.445312 -1.683594 13.296875 -4.277344 Z M 10.207031 -4.277344 "/></g></g></g><g fill="#ffffff" fill-opacity="1"><g transform="translate(93.24257, 279.023273)"><g><path d="M 10.835938 -6.316406 C 10.835938 -4.371094 9.074219 -2.59375 7.132812 -2.59375 C 5.1875 -2.59375 3.425781 -4.371094 3.425781 -6.316406 C 3.425781 -8.261719 5.1875 -10.019531 7.132812 -10.019531 C 9.074219 -10.019531 10.835938 -8.261719 10.835938 -6.316406 Z M 13.613281 -6.296875 C 13.613281 -9.78125 10.613281 -12.78125 7.132812 -12.78125 C 3.648438 -12.78125 0.648438 -9.78125 0.648438 -6.296875 C 0.648438 -2.816406 3.648438 0.183594 7.132812 0.183594 C 10.613281 0.183594 13.613281 -2.816406 13.613281 -6.296875 Z M 13.613281 -6.296875 "/></g></g></g><g fill="#ffffff" fill-opacity="1"><g transform="translate(108.245457, 279.023273)"><g><path d="M 11.003906 0 L 11.003906 -12.59375 L 8.222656 -12.59375 L 8.222656 -4.742188 L 3.890625 -12.59375 L 1.109375 -12.59375 L 1.109375 0 L 3.890625 0 L 3.890625 -7.851562 L 8.222656 0 Z M 11.003906 0 "/></g></g></g><g fill="#ffffff" fill-opacity="1"><g transform="translate(121.099775, 279.023273)"><g><path d="M 6.464844 -10.074219 L 10.058594 -10.074219 L 10.058594 -12.59375 L 0.09375 -12.59375 L 0.09375 -10.074219 L 3.6875 -10.074219 L 3.6875 0 L 6.464844 0 Z M 6.464844 -10.074219 "/></g></g></g><g fill="#ffffff" fill-opacity="1"><g transform="translate(131.990762, 279.023273)"><g><path d="M 10 -17.207031 L 7.632812 -17.207031 L 5.445312 -13.890625 L 7.519531 -13.890625 Z M 7.964844 -4.816406 L 4.777344 -4.816406 L 6.371094 -9.296875 Z M 12.667969 0 L 7.558594 -12.59375 L 5.203125 -12.59375 L 0.09375 0 L 3.074219 0 L 3.980469 -2.539062 L 8.78125 -2.539062 L 9.6875 0 Z M 12.667969 0 "/></g></g></g><g fill="#ffffff" fill-opacity="1"><g transform="translate(145.493346, 279.023273)"><g><path d="M 7.1875 -3.6875 C 7.1875 -2.851562 6.484375 -2.167969 5.648438 -2.167969 L 3.890625 -2.167969 L 3.890625 -5.203125 L 5.648438 -5.203125 C 6.484375 -5.203125 7.1875 -4.5 7.1875 -3.6875 Z M 6.316406 -8.945312 C 6.316406 -8.148438 5.648438 -7.484375 4.851562 -7.484375 L 3.890625 -7.484375 L 3.890625 -10.410156 L 4.851562 -10.410156 C 5.648438 -10.410156 6.316406 -9.761719 6.316406 -8.945312 Z M 10.019531 -3.613281 C 10.019531 -5.316406 8.871094 -6.445312 7.464844 -6.777344 C 8.410156 -7.203125 8.964844 -8.167969 8.964844 -9.445312 C 8.964844 -11.167969 7.59375 -12.59375 5.445312 -12.59375 L 1.109375 -12.59375 L 1.109375 0 L 6.203125 0 C 8.613281 0 10.019531 -1.445312 10.019531 -3.613281 Z M 10.019531 -3.613281 "/></g></g></g><g fill="#ffffff" fill-opacity="1"><g transform="translate(156.439892, 279.023273)"><g><path d="M 3.890625 0 L 3.890625 -12.59375 L 1.109375 -12.59375 L 1.109375 0 Z M 3.890625 0 "/></g></g></g><g fill="#ffffff" fill-opacity="1"><g transform="translate(162.18173, 279.023273)"><g><path d="M 1.109375 0 L 8.410156 0 L 8.410156 -2.519531 L 3.890625 -2.519531 L 3.890625 -12.59375 L 1.109375 -12.59375 Z M 1.109375 0 "/></g></g></g><g fill="#ffffff" fill-opacity="1"><g transform="translate(171.979909, 279.023273)"><g/></g></g><g fill="#ffffff" fill-opacity="1"><g transform="translate(177.351299, 279.023273)"><g><path d="M 8.410156 -2.519531 L 3.890625 -2.519531 L 3.890625 -5.054688 L 8.222656 -5.054688 L 8.222656 -7.574219 L 3.890625 -7.574219 L 3.890625 -10.074219 L 8.410156 -10.074219 L 8.410156 -12.59375 L 1.109375 -12.59375 L 1.109375 0 L 8.410156 0 Z M 8.410156 -2.519531 "/></g></g></g><g fill="#ffffff" fill-opacity="1"><g transform="translate(187.612532, 279.023273)"><g/></g></g><g fill="#ffffff" fill-opacity="1"><g transform="translate(192.983928, 279.023273)"><g><path d="M 8.222656 -5.054688 L 8.222656 -7.574219 L 3.890625 -7.574219 L 3.890625 -10.074219 L 8.410156 -10.074219 L 8.410156 -12.59375 L 1.109375 -12.59375 L 1.109375 0 L 3.890625 0 L 3.890625 -5.054688 Z M 8.222656 -5.054688 "/></g></g></g><g fill="#ffffff" fill-opacity="1"><g transform="translate(203.059954, 279.023273)"><g><path d="M 3.890625 0 L 3.890625 -12.59375 L 1.109375 -12.59375 L 1.109375 0 Z M 3.890625 0 "/></g></g></g><g fill="#ffffff" fill-opacity="1"><g transform="translate(208.801798, 279.023273)"><g><path d="M 11.003906 0 L 11.003906 -12.59375 L 8.222656 -12.59375 L 8.222656 -4.742188 L 3.890625 -12.59375 L 1.109375 -12.59375 L 1.109375 0 L 3.890625 0 L 3.890625 -7.851562 L 8.222656 0 Z M 11.003906 0 "/></g></g></g><g fill="#ffffff" fill-opacity="1"><g transform="translate(221.656111, 279.023273)"><g><path d="M 7.964844 -4.816406 L 4.777344 -4.816406 L 6.371094 -9.296875 Z M 12.667969 0 L 7.558594 -12.59375 L 5.203125 -12.59375 L 0.09375 0 L 3.074219 0 L 3.980469 -2.539062 L 8.78125 -2.539062 L 9.6875 0 Z M 12.667969 0 "/></g></g></g><g fill="#ffffff" fill-opacity="1"><g transform="translate(235.15869, 279.023273)"><g><path d="M 11.003906 0 L 11.003906 -12.59375 L 8.222656 -12.59375 L 8.222656 -4.742188 L 3.890625 -12.59375 L 1.109375 -12.59375 L 1.109375 0 L 3.890625 0 L 3.890625 -7.851562 L 8.222656 0 Z M 11.003906 0 "/></g></g></g><g fill="#ffffff" fill-opacity="1"><g transform="translate(248.013002, 279.023273)"><g><path d="M 10.207031 -4.277344 C 9.6875 -3.167969 8.425781 -2.40625 7.132812 -2.40625 C 5.09375 -2.40625 3.464844 -4.148438 3.464844 -6.296875 C 3.464844 -8.425781 5.09375 -10.1875 7.132812 -10.1875 C 8.410156 -10.1875 9.667969 -9.484375 10.1875 -8.351562 L 13.28125 -8.351562 C 12.429688 -10.929688 10 -12.78125 7.132812 -12.78125 C 3.554688 -12.78125 0.648438 -9.871094 0.648438 -6.296875 C 0.648438 -2.722656 3.554688 0.183594 7.132812 0.183594 C 10 0.183594 12.445312 -1.683594 13.296875 -4.277344 Z M 10.207031 -4.277344 "/></g></g></g><g fill="#ffffff" fill-opacity="1"><g transform="translate(262.515783, 279.023273)"><g><path d="M 8.410156 -2.519531 L 3.890625 -2.519531 L 3.890625 -5.054688 L 8.222656 -5.054688 L 8.222656 -7.574219 L 3.890625 -7.574219 L 3.890625 -10.074219 L 8.410156 -10.074219 L 8.410156 -12.59375 L 1.109375 -12.59375 L 1.109375 0 L 8.410156 0 Z M 8.410156 -2.519531 "/></g></g></g><g fill="#ffffff" fill-opacity="1"><g transform="translate(272.777021, 279.023273)"><g><path d="M 3.890625 0 L 3.890625 -12.59375 L 1.109375 -12.59375 L 1.109375 0 Z M 3.890625 0 "/></g></g></g><g fill="#ffffff" fill-opacity="1"><g transform="translate(278.518865, 279.023273)"><g><path d="M 3.890625 -4.5 L 3.90625 -4.5 L 6.910156 0 L 10.429688 0 L 6.816406 -4.628906 C 8.410156 -5.019531 9.6875 -6.425781 9.6875 -8.558594 C 9.6875 -10.945312 7.871094 -12.59375 5.835938 -12.59375 L 1.109375 -12.59375 L 1.109375 0 L 3.890625 0 Z M 5.371094 -10.410156 C 6.1875 -10.410156 7.039062 -9.707031 7.039062 -8.558594 C 7.039062 -7.351562 6.1875 -6.6875 5.371094 -6.6875 L 3.890625 -6.6875 L 3.890625 -10.410156 Z M 5.371094 -10.410156 "/></g></g></g><g fill="#ffffff" fill-opacity="1"><g transform="translate(289.465404, 279.023273)"><g><path d="M 7.964844 -4.816406 L 4.777344 -4.816406 L 6.371094 -9.296875 Z M 12.667969 0 L 7.558594 -12.59375 L 5.203125 -12.59375 L 0.09375 0 L 3.074219 0 L 3.980469 -2.539062 L 8.78125 -2.539062 L 9.6875 0 Z M 12.667969 0 "/></g></g></g><g fill="#ffffff" fill-opacity="1"><g transform="translate(118.317177, 191.474987)"><g><path d="M 72.886719 2.007812 C 88.4375 2.007812 101.976562 -2.507812 112.675781 -10.363281 L 112.675781 -18.890625 C 102.8125 -10.53125 88.4375 -5.347656 72.886719 -5.347656 C 40.289062 -5.347656 16.882812 -26.078125 16.882812 -57.507812 C 16.882812 -88.269531 40.121094 -111.503906 72.722656 -111.503906 C 85.425781 -111.503906 96.292969 -108.164062 105.488281 -102.3125 L 106.492188 -111.003906 C 96.960938 -116.019531 85.09375 -118.863281 72.886719 -118.863281 C 35.777344 -118.863281 9.195312 -92.78125 9.195312 -57.507812 C 9.195312 -21.898438 35.609375 2.007812 72.886719 2.007812 Z M 72.886719 2.007812 "/></g></g></g><g fill="#ffffff" fill-opacity="1"><g transform="translate(186.262492, 167.913534)"><g><path d="M 8.519531 0 L 13.421875 0 L 13.421875 -31.847656 L 39.835938 -31.953125 L 60.070312 0 L 65.503906 0 L 44.945312 -32.273438 C 56.664062 -34.082031 64.863281 -42.390625 64.863281 -53.574219 C 64.863281 -66.25 54.53125 -74.558594 40.261719 -74.558594 L 8.519531 -74.558594 Z M 13.421875 -36 L 13.421875 -69.871094 L 39.621094 -69.871094 C 51.335938 -69.871094 59.859375 -63.375 59.859375 -53.148438 C 59.859375 -42.921875 51.335938 -36 39.621094 -36 Z M 13.421875 -36 "/></g></g></g></svg>